<?xml version="1.0" encoding="UTF-8" standalone="no"?>
<!DOCTYPE svg PUBLIC "-//W3C//DTD SVG 1.1//EN" "http://www.w3.org/Graphics/SVG/1.1/DTD/svg11.dtd">
<svg width="100%" height="100%" viewBox="0 0 2500 2500" version="1.1" xmlns="http://www.w3.org/2000/svg" xmlns:xlink="http://www.w3.org/1999/xlink" xml:space="preserve" xmlns:serif="http://www.serif.com/" style="fill-rule:evenodd;clip-rule:evenodd;stroke-linejoin:round;stroke-miterlimit:2;">
    <g transform="matrix(44.953518,0,0,44.953518,0,0)">
        <path d="M27.807,55.613C43.164,55.613 55.613,43.164 55.613,27.806C55.613,12.45 43.164,0 27.807,0C12.45,0 0,12.45 0,27.807C0,43.164 12.45,55.613 27.807,55.613Z" style="fill-rule:nonzero;"/>
    </g>
    <g transform="matrix(44.953518,0,0,44.953518,0,0)">
        <path d="M27.807,55.056C42.856,55.056 55.056,42.856 55.056,27.807C55.056,12.757 42.857,0.557 27.807,0.557C12.757,0.557 0.557,12.757 0.557,27.807C0.557,42.855 12.757,55.056 27.807,55.056Z" style="fill:white;fill-rule:nonzero;"/>
    </g>
    <g transform="matrix(44.953518,0,0,44.953518,0,0)">
        <path d="M27.807,47.838C38.869,47.838 47.838,38.87 47.838,27.807C47.838,16.744 38.869,7.775 27.807,7.775C16.744,7.775 7.775,16.744 7.775,27.807C7.775,38.87 16.744,47.838 27.807,47.838ZM6.108,28.589L7.059,28.999L7.04,30.592L1.568,28.305L1.588,26.666L7.112,24.558L7.093,26.159L6.133,26.522L6.108,28.589ZM7.578,19.327L8.269,17.665L9.387,18.131L8.119,21.178L3.042,19.066L3.619,17.68L7.578,19.327Z" style="fill-rule:nonzero;"/>
    </g>
    <g transform="matrix(44.953518,0,0,44.953518,0,0)">
        <path d="M9.281,11.013L9.959,11.633L11.07,10.417L11.964,11.234L10.853,12.45L12.447,13.906L11.434,15.014L7.375,11.305L9.611,8.857L10.505,9.673L9.281,11.013ZM16.866,9.068L16.957,10.099L15.546,10.838L14.961,4.937L16.413,4.176L20.891,8.038L19.473,8.781L18.697,8.108L16.866,9.068ZM28.88,6.922L27.017,7.07L25.438,5.074L25.423,5.075L25.59,7.182L24.094,7.3L23.659,1.82L25.895,1.643C27.033,1.552 27.937,2 28.029,3.171C28.089,3.927 27.698,4.617 26.892,4.819L28.88,6.922ZM38.146,6.332C37.601,8.027 35.94,8.81 34.175,8.242C32.411,7.673 31.521,6.069 32.066,4.375C32.576,2.792 34.392,2.151 35.974,2.66C37.556,3.169 38.655,4.75 38.146,6.332ZM43.945,6.909L45.021,7.921L43.859,10.865L46.777,9.576L47.864,10.6L44.944,15.495L43.87,14.448L45.501,11.579L45.49,11.569L42.31,12.922L41.875,12.513L43.081,9.3L43.07,9.29L40.351,11.113L39.251,10.102L43.945,6.909ZM50.972,18.165L50.123,18.517L50.772,20.08L49.654,20.544L49.005,18.981L48.129,19.344L48.813,20.993L47.695,21.456L46.437,18.422L51.515,16.315L52.774,19.349L51.656,19.812L50.972,18.165ZM51.581,30.223C49.803,30.285 48.503,28.989 48.438,27.136C48.376,25.284 49.583,23.901 51.362,23.839C53.023,23.783 54.242,25.273 54.299,26.934C54.357,28.594 53.243,30.165 51.581,30.223Z" style="fill-rule:nonzero;"/>
    </g>
    <g transform="matrix(44.953518,0,0,44.953518,0,0)">
        <path d="M3.277,27.506L3.277,27.522L5.019,28.163L5.035,26.914L3.277,27.506ZM16.475,6.062L16.462,6.069L16.724,7.907L17.83,7.327L16.475,6.062ZM25.35,4.159L25.495,4.147C25.983,4.109 26.526,3.978 26.479,3.381C26.432,2.785 25.875,2.742 25.387,2.781L25.242,2.791L25.35,4.159ZM33.55,4.861C33.493,5.029 33.464,5.205 33.464,5.382C33.464,6.087 33.926,6.714 34.6,6.922C34.765,6.978 34.939,7.006 35.113,7.006C35.822,7.006 36.451,6.539 36.657,5.861C36.889,5.139 36.402,4.254 35.549,3.979C34.695,3.704 33.783,4.139 33.55,4.861ZM51.408,25.402C50.534,25.417 49.822,26.14 49.822,27.015C49.822,27.039 49.823,27.064 49.824,27.088C49.843,27.958 50.564,28.663 51.435,28.663C51.463,28.663 51.492,28.663 51.52,28.661C52.278,28.635 52.946,27.877 52.915,26.982C52.884,26.086 52.166,25.375 51.408,25.402ZM28.041,47.32L28.04,8.294C38.69,8.4 47.32,17.096 47.32,27.807C47.32,38.518 38.695,47.213 28.004,47.32L28.041,47.32ZM8.447,30.27C9.093,35.371 11.733,40.014 15.785,43.178L15.782,30.272L8.447,30.272L8.447,30.27ZM15.773,12.445L15.782,24.357L8.593,24.355C9.447,19.533 12.073,15.347 15.773,12.445ZM27.573,24.356L21.696,24.356L21.701,9.268C23.597,8.644 25.577,8.315 27.573,8.294L27.573,24.356ZM27.573,47.32C25.574,47.299 23.591,46.969 21.693,46.342L21.696,30.271L27.573,30.271L27.573,47.32Z" style="fill:white;fill-rule:nonzero;"/>
    </g>
    <g transform="matrix(44.953518,0,0,44.953518,0,0)">
        <path d="M33.523,16.521L40.619,16.521L40.619,15.782L33.523,15.782L33.523,16.521ZM33.523,15.166L40.619,15.166L40.619,14.6L33.523,14.6L33.523,15.166ZM38.525,14.281C38.85,14.281 39.118,14.013 39.118,13.688C39.118,13.363 38.85,13.095 38.525,13.095C38.2,13.095 37.932,13.363 37.932,13.688C37.933,14.013 38.2,14.28 38.525,14.281ZM35.938,43.167C35.128,43.167 34.473,42.561 34.473,41.752C34.473,40.945 35.128,40.24 35.938,40.24L38.795,40.241C39.104,40.241 39.353,39.991 39.353,39.682C39.354,39.374 39.103,39.118 38.795,39.114L34.212,39.114C32.74,39.113 31.529,37.902 31.529,36.43C31.529,34.949 32.73,33.808 34.212,33.808L39.829,33.804C40.176,33.804 40.457,33.622 40.457,33.277C40.459,32.93 40.176,32.641 39.829,32.636L34.163,32.636C34.133,32.637 34.103,32.637 34.073,32.637C31.855,32.637 30.03,30.812 30.03,28.594C30.03,26.376 31.855,24.551 34.073,24.551C34.103,24.551 34.133,24.551 34.163,24.552L39.608,24.556C40.031,24.556 40.374,24.188 40.374,23.765C40.374,23.341 40.031,23.023 39.608,23.023L33.472,23.026C33.768,21.745 34.606,21.547 35.344,21.548L38.202,21.548C38.202,21.548 38.203,21.548 38.203,21.548C38.528,21.548 38.795,21.281 38.795,20.956C38.795,20.956 38.795,20.955 38.795,20.955C38.795,20.629 38.53,20.413 38.202,20.413L35.344,20.413C34.113,20.413 33.522,19.329 33.472,18.739L36.429,18.739C36.675,17.95 37.168,17.556 37.71,17.556L40.864,17.556C41.948,17.556 42.391,16.866 42.49,16.57C43.229,16.915 45.889,19.034 45.889,22.582C45.889,26.13 42.736,27.953 40.764,27.967L34.161,27.967C33.817,27.967 33.534,28.25 33.534,28.594C33.534,28.938 33.817,29.221 34.161,29.221L40.37,29.216C42.333,29.216 43.924,30.87 43.924,32.832C43.924,34.795 42.333,36.337 40.37,36.337L34.456,36.33C34.131,36.33 33.863,36.597 33.863,36.923C33.863,37.248 34.131,37.515 34.456,37.515C34.456,37.515 38.941,37.519 38.941,37.519C39.999,37.519 40.857,38.377 40.857,39.436C40.857,40.496 39.999,41.34 38.941,41.34L36.23,41.348C35.981,41.348 35.777,41.552 35.777,41.801C35.777,42.05 35.981,42.254 36.23,42.254L38.312,42.254C39.039,42.257 39.852,43.328 38.288,43.92C38.301,43.612 38.251,43.168 37.598,43.168C36.948,43.169 35.938,43.167 35.938,43.167Z" style="fill-rule:nonzero;"/>
    </g>
    <g transform="matrix(44.953518,0,0,44.953518,0,0)">
        <path d="M33.979,20.982C32.821,21.524 32.538,23.149 32.598,23.716L30.973,24.837C30.864,24.955 30.711,25.023 30.55,25.023C30.235,25.023 29.975,24.763 29.975,24.448C29.975,24.287 30.042,24.134 30.16,24.025L31.207,23.297C31.724,22.952 31.626,22.386 31.552,21.918C31.479,21.45 30.986,21.671 30.837,21.844C30.617,22.065 30.312,22.202 29.975,22.202C29.301,22.202 28.755,21.68 28.755,21.006C28.755,20.337 29.306,19.786 29.975,19.786C30.298,19.786 30.608,19.915 30.837,20.143C30.985,20.316 31.479,20.538 31.552,20.069C31.626,19.601 31.724,19.034 31.207,18.689L30.16,17.962C30.052,17.854 29.992,17.708 29.992,17.555C29.992,17.24 30.251,16.981 30.567,16.981C30.719,16.981 30.865,17.041 30.973,17.149L32.598,18.27C32.5,18.74 32.821,20.44 33.979,20.982Z" style="fill-rule:nonzero;"/>
    </g>
</svg>
