<?xml version="1.0" encoding="UTF-8" standalone="no"?>
<!DOCTYPE svg PUBLIC "-//W3C//DTD SVG 1.1//EN" "http://www.w3.org/Graphics/SVG/1.1/DTD/svg11.dtd">
<svg width="100%" height="100%" viewBox="0 0 1356 379" version="1.1" xmlns="http://www.w3.org/2000/svg" xmlns:xlink="http://www.w3.org/1999/xlink" xml:space="preserve" xmlns:serif="http://www.serif.com/" style="fill-rule:evenodd;clip-rule:evenodd;stroke-linejoin:round;stroke-miterlimit:2;">
    <g transform="matrix(1,0,0,1,-84.289853,0)">
        <g transform="matrix(0.8,0,0,0.8,119.579603,-268.962894)">
            <path id="path4147-2" d="M-44.112,336.204L-44.112,493.608L538.427,493.608L538.427,652.336L-44.112,652.336L-44.112,809.74L599.09,809.74C613.844,809.74 623.569,805.647 633.625,795.537L802.971,630.81L972.322,795.537C982.378,805.647 992.103,809.74 1006.857,809.74L1650.059,809.74L1650.059,652.336L1067.515,652.336L1067.515,493.608L1650.059,493.608L1650.059,336.204L1006.857,336.204C992.103,336.204 982.378,340.296 972.322,350.407L802.971,515.134L633.625,350.407C623.569,340.296 613.844,336.204 599.09,336.204L-44.112,336.204Z" style="fill:rgb(11,29,6);"/>
        </g>
    </g>
</svg>
