<?xml version="1.0" encoding="UTF-8" standalone="no"?>
<!DOCTYPE svg PUBLIC "-//W3C//DTD SVG 1.1//EN" "http://www.w3.org/Graphics/SVG/1.1/DTD/svg11.dtd">
<svg width="100%" height="100%" viewBox="0 0 993 1213" version="1.1" xmlns="http://www.w3.org/2000/svg" xmlns:xlink="http://www.w3.org/1999/xlink" xml:space="preserve" xmlns:serif="http://www.serif.com/" style="fill-rule:evenodd;clip-rule:evenodd;stroke-linejoin:round;stroke-miterlimit:2;">
    <g transform="matrix(1,0,0,1,-503.635208,0)">
        <g id="path98" transform="matrix(15.288419,0,0,15.288419,130.70049,0)">
            <path d="M88.289,51.791C88.03,51.532 86.646,50.321 86.646,50.321L59.151,28.965C63.907,33.634 70.91,41.243 73.072,47.987C73.677,49.802 73.936,51.532 73.936,53.088C73.936,54.471 73.591,56.028 73.072,57.584C71.948,60.437 69.613,63.723 66.068,67.441C64.858,68.738 59.584,73.926 57.854,75.655C57.508,76.001 57.249,76.519 57.163,77.125L57.163,78.681L88.03,54.644C88.376,54.385 89.067,53.866 89.067,53.002C88.981,52.483 88.462,51.964 88.289,51.791Z" style="fill:url(#_Linear1);fill-rule:nonzero;"/>
        </g>
        <g id="path100" transform="matrix(15.288419,0,0,15.288419,130.70049,0)">
            <path d="M68.403,68.824C68.23,68.651 74.282,64.328 77.654,56.979C78.605,54.904 79.038,54.039 81.026,53.866C83.101,53.693 85.609,53.52 86.819,53.434C87.338,53.434 87.511,53.52 87.597,53.78C87.684,53.953 87.511,54.212 87.079,54.471C83.88,56.719 79.124,60.61 72.639,65.712C72.38,66.057 68.489,68.911 68.403,68.824Z" style="fill:url(#_Linear2);fill-rule:nonzero;"/>
        </g>
        <g id="path102" transform="matrix(15.288419,0,0,15.288419,130.70049,0)">
            <path d="M72.899,31.386C72.294,29.57 72.034,27.841 72.034,26.285C72.034,24.901 72.38,23.345 72.899,21.789C74.023,18.935 76.357,15.65 79.902,11.932C81.026,10.721 85.695,6.052 88.116,3.718C88.549,3.286 88.721,2.853 88.894,2.248C88.981,1.729 88.981,1.297 88.981,1.124L88.981,0.605L58.027,24.642C57.854,24.815 57.336,25.247 57.076,25.766C56.99,25.939 56.99,26.371 57.076,26.717C57.249,27.149 57.508,27.409 57.681,27.582C57.941,27.755 59.238,28.879 59.238,28.879L86.733,50.235C81.891,45.566 75.06,37.957 72.899,31.386Z" style="fill:url(#_Linear3);fill-rule:nonzero;"/>
        </g>
        <g id="path104" transform="matrix(15.288419,0,0,15.288419,130.70049,0)">
            <path d="M71.342,30.954C70.824,29.397 70.478,27.755 70.478,26.198C70.478,24.728 70.91,23.345 71.429,21.875C73.936,15.736 85.782,5.274 88.203,3.286C86.214,4.842 77.481,12.278 75.233,14.612C71.515,18.244 68.662,22.307 68.662,26.285C68.662,30.608 71.688,35.017 75.147,39.081C77.308,41.675 79.384,43.923 81.459,45.739C83.62,47.727 85.09,49.024 86.646,50.235C84.917,48.592 74.196,39.081 71.342,30.954Z" style="fill-rule:nonzero;"/>
        </g>
        <g id="path106" transform="matrix(15.288419,0,0,15.288419,130.70049,0)">
            <path d="M72.899,31.386C72.294,29.57 72.034,27.841 72.034,26.285C72.034,24.901 72.38,23.345 72.899,21.789C74.023,18.935 76.357,15.65 79.902,11.932C81.026,10.721 85.695,6.052 88.116,3.718C88.203,3.631 88.289,3.545 88.376,3.372C85.955,5.274 74.109,15.823 71.602,21.962C70.997,23.431 70.651,24.815 70.651,26.285C70.651,27.841 70.91,29.484 71.515,31.04C74.369,39.168 84.917,48.592 86.733,50.321C81.804,45.479 75.06,37.957 72.899,31.386Z" style="fill:url(#_Linear4);fill-rule:nonzero;"/>
        </g>
        <g id="path108" transform="matrix(15.288419,0,0,15.288419,130.70049,0)">
            <path d="M74.542,48.333C71.688,40.205 60.881,30.521 59.151,28.965C63.907,33.634 70.91,41.243 73.072,47.987C73.677,49.802 73.936,51.532 73.936,53.088C73.936,54.471 73.591,56.028 73.072,57.584C71.948,60.437 69.613,63.723 66.068,67.441C64.858,68.738 59.584,73.926 57.854,75.655C57.768,75.741 57.681,75.828 57.595,76.001C60.016,74.012 71.775,63.55 74.369,57.411C74.974,55.941 75.32,54.558 75.32,53.088C75.406,51.532 75.147,49.975 74.542,48.333Z" style="fill:url(#_Linear5);fill-rule:nonzero;"/>
        </g>
        <g id="path110" transform="matrix(15.288419,0,0,15.288419,130.70049,0)">
            <path d="M70.824,40.292C68.662,37.698 66.587,35.45 64.512,33.634C62.35,31.645 60.708,30.175 59.151,28.965C60.967,30.521 71.775,40.292 74.542,48.333C75.06,49.889 75.406,51.532 75.406,53.088C75.406,54.558 74.974,55.941 74.455,57.411C71.861,63.55 60.102,74.012 57.595,76.001L57.595,76.087C59.67,74.531 68.403,67.095 70.651,64.761C74.369,61.129 77.222,57.065 77.222,53.088C77.222,48.765 74.196,44.355 70.824,40.292L70.824,40.292ZM45.404,26.198C45.404,30.521 42.464,34.844 38.573,38.822C36.066,41.329 33.558,43.577 31.224,45.393C28.803,47.382 26.901,48.678 25.171,49.889C27.16,48.333 39.351,38.908 42.55,30.867C43.156,29.311 43.502,27.755 43.502,26.198C43.502,24.642 43.156,23.086 42.55,21.529C39.351,13.488 27.16,4.064 25.171,2.507C26.901,3.718 28.803,5.015 31.224,7.003C33.558,8.819 36.066,11.067 38.573,13.575C42.464,17.552 45.404,21.962 45.404,26.198Z" style="fill-rule:nonzero;"/>
        </g>
        <g id="path112" transform="matrix(15.288419,0,0,15.288419,130.70049,0)">
            <path d="M25.171,49.889L24.653,50.235L24.653,2.162L25.171,2.507C26.987,4.064 38.314,13.488 41.253,21.529C41.859,23.086 42.205,24.642 42.205,26.198C42.205,27.755 41.859,29.311 41.253,30.867C38.227,38.908 26.987,48.333 25.171,49.889" style="fill:url(#_Linear6);fill-rule:nonzero;"/>
        </g>
        <g id="path114" transform="matrix(15.288419,0,0,15.288419,130.70049,0)">
            <path d="M25.171,49.889C27.16,48.333 39.351,38.908 42.55,30.867C43.156,29.311 43.502,27.755 43.502,26.198C43.502,24.642 43.156,23.086 42.55,21.529C39.351,13.488 27.16,4.064 25.171,2.507C26.987,4.064 38.314,13.488 41.253,21.529C41.859,23.086 42.205,24.642 42.205,26.198C42.205,27.755 41.859,29.311 41.253,30.867C38.227,38.908 26.987,48.333 25.171,49.889Z" style="fill:url(#_Linear7);fill-rule:nonzero;"/>
        </g>
        <g id="path116" transform="matrix(15.288419,0,0,15.288419,130.70049,0)">
            <path d="M88.462,51.618C86.214,49.457 75.925,39.686 73.158,31.299C72.553,29.57 72.294,27.927 72.294,26.285C72.294,24.815 72.639,23.431 73.158,21.962C74.455,18.676 77.222,15.131 80.075,12.191C81.286,10.894 86.56,5.707 88.289,3.891C88.721,3.459 88.981,2.94 89.067,2.421C89.154,1.902 89.24,1.383 89.24,1.038L89.24,0.086L57.854,24.382C57.508,24.642 56.99,25.074 56.817,25.766C56.644,25.161 56.125,24.642 55.779,24.382L24.393,0L24.393,52.483L55.779,28.1C56.125,27.841 56.644,27.409 56.817,26.717C56.99,27.236 57.336,27.668 57.508,27.755C59.756,29.916 70.132,39.686 72.899,48.073C73.504,49.802 73.763,51.445 73.763,53.088C73.763,54.558 73.418,55.941 72.899,57.411C71.602,60.697 68.835,64.242 65.982,67.181C64.771,68.478 59.497,73.753 57.768,75.482C57.422,75.828 57.076,76.433 56.99,76.952C56.903,77.384 56.817,77.816 56.817,78.335L56.817,79.286L88.203,54.904C88.635,54.558 89.327,53.953 89.327,53.088C89.24,52.31 88.635,51.791 88.462,51.618ZM55.606,27.841L24.653,51.878L24.653,0.605L55.52,24.642C55.866,24.901 56.557,25.506 56.557,26.285C56.557,26.976 55.952,27.582 55.606,27.841ZM57.076,26.717C56.99,26.371 56.99,26.025 57.076,25.766C57.249,25.247 57.768,24.815 58.027,24.642L88.894,0.605L88.894,1.038C88.894,1.21 88.894,1.643 88.808,2.162C88.721,2.767 88.462,3.286 88.03,3.631C85.695,5.966 80.94,10.635 79.816,11.845C76.271,15.563 73.936,18.849 72.812,21.702C72.207,23.258 71.948,24.728 71.948,26.198C71.948,27.841 72.294,29.57 72.812,31.299C74.974,37.957 81.804,45.479 86.56,50.148L59.238,28.879C59.238,28.879 57.941,27.755 57.681,27.582C57.508,27.409 57.249,27.063 57.076,26.717ZM87.943,54.731L57.076,78.767L57.076,78.335C57.076,77.903 57.163,77.557 57.163,77.211C57.249,76.606 57.508,76.087 57.941,75.741L66.155,67.527C69.7,63.809 72.034,60.524 73.158,57.671C73.763,56.114 74.023,54.644 74.023,53.175C74.023,51.532 73.677,49.802 73.158,48.073C70.91,41.329 63.993,33.72 59.238,29.051L86.819,50.494C86.819,50.494 88.203,51.705 88.462,51.964C88.635,52.137 89.154,52.656 89.154,53.261C88.981,53.866 88.289,54.471 87.943,54.731Z" style="fill-rule:nonzero;"/>
        </g>
        <g id="path118" transform="matrix(15.288419,0,0,15.288419,130.70049,0)">
            <path d="M76.963,41.934C77.049,41.848 73.85,38.735 73.418,38.389C69.873,35.104 67.019,30.003 67.019,30.003C65.982,27.927 65.636,27.063 63.647,26.89C61.572,26.717 60.189,26.63 58.978,26.63C58.46,26.63 58.287,26.717 58.2,26.976C58.114,27.149 58.287,27.409 58.719,27.668C61.918,29.916 66.674,33.72 73.158,38.908C73.591,39.168 76.876,42.021 76.963,41.934Z" style="fill:url(#_Linear8);fill-rule:nonzero;"/>
        </g>
        <g id="path120" transform="matrix(15.288419,0,0,15.288419,130.70049,0)">
            <path d="M24.653,50.321L25.171,49.975C26.901,48.765 28.803,47.468 31.224,45.479C33.558,43.664 36.066,41.416 38.573,38.908C42.464,34.931 45.404,30.608 45.404,26.285C45.404,21.962 42.464,17.638 38.573,13.661C36.066,11.154 33.558,8.906 31.224,7.09C28.803,5.101 26.901,3.804 25.171,2.594L24.653,2.248L24.653,0.605L55.52,24.642C55.866,24.901 56.557,25.506 56.557,26.285C56.557,27.063 55.952,27.582 55.52,27.927L24.653,51.878L24.653,50.321Z" style="fill:url(#_Linear9);fill-rule:nonzero;"/>
        </g>
        <g id="path122" transform="matrix(15.288419,0,0,15.288419,130.70049,0)">
            <path d="M36.239,41.934C36.239,41.934 37.017,41.156 38.833,39.513C39.265,39.168 39.697,38.735 40.043,38.389C43.588,35.104 46.441,30.003 46.441,30.003C47.479,27.927 47.825,27.063 49.813,26.89C51.888,26.717 53.272,26.63 54.482,26.63C55.001,26.63 55.174,26.717 55.26,26.976C55.347,27.149 55.174,27.409 54.742,27.668C51.543,29.916 46.874,33.807 40.302,38.908C39.87,39.254 39.438,39.6 39.005,39.859C37.276,41.156 36.325,42.021 36.239,41.934Z" style="fill:url(#_Linear10);fill-rule:nonzero;"/>
        </g>
    </g>
    <defs>
        <linearGradient id="_Linear1" x1="0" y1="0" x2="1" y2="0" gradientUnits="userSpaceOnUse" gradientTransform="matrix(0,49.768617,-49.768617,0,73.10485,28.950823)"><stop offset="0" style="stop-color:rgb(140,140,140);stop-opacity:1"/><stop offset="0.04" style="stop-color:rgb(140,140,140);stop-opacity:1"/><stop offset="0.19" style="stop-color:rgb(182,182,182);stop-opacity:1"/><stop offset="0.4" style="stop-color:rgb(235,235,235);stop-opacity:1"/><stop offset="0.51" style="stop-color:white;stop-opacity:1"/><stop offset="0.56" style="stop-color:rgb(250,250,250);stop-opacity:1"/><stop offset="0.63" style="stop-color:rgb(235,235,235);stop-opacity:1"/><stop offset="0.71" style="stop-color:rgb(211,211,211);stop-opacity:1"/><stop offset="0.79" style="stop-color:rgb(178,178,178);stop-opacity:1"/><stop offset="0.87" style="stop-color:rgb(135,135,135);stop-opacity:1"/><stop offset="0.95" style="stop-color:rgb(83,83,83);stop-opacity:1"/><stop offset="0.96" style="stop-color:rgb(77,77,77);stop-opacity:1"/><stop offset="1" style="stop-color:rgb(77,77,77);stop-opacity:1"/></linearGradient>
        <linearGradient id="_Linear2" x1="0" y1="0" x2="1" y2="0" gradientUnits="userSpaceOnUse" gradientTransform="matrix(1.194578,13.763817,-13.763817,1.194578,77.388787,54.171857)"><stop offset="0" style="stop-color:rgb(191,191,191);stop-opacity:1"/><stop offset="0.21" style="stop-color:rgb(102,102,102);stop-opacity:1"/><stop offset="0.27" style="stop-color:rgb(89,89,89);stop-opacity:1"/><stop offset="0.52" style="stop-color:rgb(41,41,41);stop-opacity:1"/><stop offset="0.7" style="stop-color:rgb(11,11,11);stop-opacity:1"/><stop offset="0.81" style="stop-color:black;stop-opacity:1"/><stop offset="1" style="stop-color:black;stop-opacity:1"/></linearGradient>
        <linearGradient id="_Linear3" x1="0" y1="0" x2="1" y2="0" gradientUnits="userSpaceOnUse" gradientTransform="matrix(0,49.616518,-49.616518,0,73.014796,0.598372)"><stop offset="0" style="stop-color:rgb(140,140,140);stop-opacity:1"/><stop offset="0.04" style="stop-color:rgb(140,140,140);stop-opacity:1"/><stop offset="0.19" style="stop-color:rgb(182,182,182);stop-opacity:1"/><stop offset="0.4" style="stop-color:rgb(235,235,235);stop-opacity:1"/><stop offset="0.51" style="stop-color:white;stop-opacity:1"/><stop offset="0.56" style="stop-color:rgb(250,250,250);stop-opacity:1"/><stop offset="0.63" style="stop-color:rgb(235,235,235);stop-opacity:1"/><stop offset="0.71" style="stop-color:rgb(211,211,211);stop-opacity:1"/><stop offset="0.79" style="stop-color:rgb(178,178,178);stop-opacity:1"/><stop offset="0.87" style="stop-color:rgb(135,135,135);stop-opacity:1"/><stop offset="0.95" style="stop-color:rgb(83,83,83);stop-opacity:1"/><stop offset="0.96" style="stop-color:rgb(77,77,77);stop-opacity:1"/><stop offset="1" style="stop-color:rgb(77,77,77);stop-opacity:1"/></linearGradient>
        <linearGradient id="_Linear4" x1="0" y1="0" x2="1" y2="0" gradientUnits="userSpaceOnUse" gradientTransform="matrix(0,-46.878676,46.878676,0,79.518832,50.212717)"><stop offset="0" style="stop-color:rgb(77,77,77);stop-opacity:1"/><stop offset="0.04" style="stop-color:rgb(77,77,77);stop-opacity:1"/><stop offset="0.05" style="stop-color:rgb(90,90,90);stop-opacity:1"/><stop offset="0.11" style="stop-color:rgb(163,163,163);stop-opacity:1"/><stop offset="0.14" style="stop-color:rgb(192,192,192);stop-opacity:1"/><stop offset="0.18" style="stop-color:rgb(215,215,215);stop-opacity:1"/><stop offset="0.23" style="stop-color:rgb(233,233,233);stop-opacity:1"/><stop offset="0.28" style="stop-color:rgb(246,246,246);stop-opacity:1"/><stop offset="0.35" style="stop-color:rgb(253,253,253);stop-opacity:1"/><stop offset="0.51" style="stop-color:white;stop-opacity:1"/><stop offset="0.63" style="stop-color:rgb(253,253,253);stop-opacity:1"/><stop offset="0.7" style="stop-color:rgb(245,245,245);stop-opacity:1"/><stop offset="0.76" style="stop-color:rgb(231,231,231);stop-opacity:1"/><stop offset="0.81" style="stop-color:rgb(211,211,211);stop-opacity:1"/><stop offset="0.85" style="stop-color:rgb(186,186,186);stop-opacity:1"/><stop offset="0.89" style="stop-color:rgb(155,155,155);stop-opacity:1"/><stop offset="0.93" style="stop-color:rgb(119,119,119);stop-opacity:1"/><stop offset="0.96" style="stop-color:rgb(77,77,77);stop-opacity:1"/><stop offset="1" style="stop-color:rgb(77,77,77);stop-opacity:1"/></linearGradient>
        <linearGradient id="_Linear5" x1="0" y1="0" x2="1" y2="0" gradientUnits="userSpaceOnUse" gradientTransform="matrix(0,-47.0421,47.0421,0,66.459681,76.007207)"><stop offset="0" style="stop-color:rgb(77,77,77);stop-opacity:1"/><stop offset="0.04" style="stop-color:rgb(77,77,77);stop-opacity:1"/><stop offset="0.05" style="stop-color:rgb(90,90,90);stop-opacity:1"/><stop offset="0.11" style="stop-color:rgb(163,163,163);stop-opacity:1"/><stop offset="0.14" style="stop-color:rgb(192,192,192);stop-opacity:1"/><stop offset="0.18" style="stop-color:rgb(215,215,215);stop-opacity:1"/><stop offset="0.23" style="stop-color:rgb(233,233,233);stop-opacity:1"/><stop offset="0.28" style="stop-color:rgb(246,246,246);stop-opacity:1"/><stop offset="0.35" style="stop-color:rgb(253,253,253);stop-opacity:1"/><stop offset="0.51" style="stop-color:white;stop-opacity:1"/><stop offset="0.63" style="stop-color:rgb(253,253,253);stop-opacity:1"/><stop offset="0.7" style="stop-color:rgb(245,245,245);stop-opacity:1"/><stop offset="0.76" style="stop-color:rgb(231,231,231);stop-opacity:1"/><stop offset="0.81" style="stop-color:rgb(211,211,211);stop-opacity:1"/><stop offset="0.85" style="stop-color:rgb(186,186,186);stop-opacity:1"/><stop offset="0.89" style="stop-color:rgb(155,155,155);stop-opacity:1"/><stop offset="0.93" style="stop-color:rgb(119,119,119);stop-opacity:1"/><stop offset="0.96" style="stop-color:rgb(77,77,77);stop-opacity:1"/><stop offset="1" style="stop-color:rgb(77,77,77);stop-opacity:1"/></linearGradient>
        <linearGradient id="_Linear6" x1="0" y1="0" x2="1" y2="0" gradientUnits="userSpaceOnUse" gradientTransform="matrix(20.883796,36.083875,-36.083875,20.883796,16.349843,6.931305)"><stop offset="0" style="stop-color:rgb(245,245,245);stop-opacity:1"/><stop offset="0.02" style="stop-color:rgb(245,245,245);stop-opacity:1"/><stop offset="0.33" style="stop-color:rgb(240,240,240);stop-opacity:1"/><stop offset="0.69" style="stop-color:rgb(226,226,226);stop-opacity:1"/><stop offset="0.73" style="stop-color:rgb(224,224,224);stop-opacity:1"/><stop offset="0.96" style="stop-color:rgb(179,179,179);stop-opacity:1"/><stop offset="1" style="stop-color:rgb(179,179,179);stop-opacity:1"/></linearGradient>
        <linearGradient id="_Linear7" x1="0" y1="0" x2="1" y2="0" gradientUnits="userSpaceOnUse" gradientTransform="matrix(0,-47.36539,47.36539,0,34.332818,49.896952)"><stop offset="0" style="stop-color:rgb(77,77,77);stop-opacity:1"/><stop offset="0.04" style="stop-color:rgb(77,77,77);stop-opacity:1"/><stop offset="0.05" style="stop-color:rgb(90,90,90);stop-opacity:1"/><stop offset="0.11" style="stop-color:rgb(163,163,163);stop-opacity:1"/><stop offset="0.14" style="stop-color:rgb(192,192,192);stop-opacity:1"/><stop offset="0.18" style="stop-color:rgb(215,215,215);stop-opacity:1"/><stop offset="0.23" style="stop-color:rgb(233,233,233);stop-opacity:1"/><stop offset="0.28" style="stop-color:rgb(246,246,246);stop-opacity:1"/><stop offset="0.35" style="stop-color:rgb(253,253,253);stop-opacity:1"/><stop offset="0.51" style="stop-color:white;stop-opacity:1"/><stop offset="0.63" style="stop-color:rgb(253,253,253);stop-opacity:1"/><stop offset="0.7" style="stop-color:rgb(245,245,245);stop-opacity:1"/><stop offset="0.76" style="stop-color:rgb(231,231,231);stop-opacity:1"/><stop offset="0.81" style="stop-color:rgb(211,211,211);stop-opacity:1"/><stop offset="0.85" style="stop-color:rgb(186,186,186);stop-opacity:1"/><stop offset="0.89" style="stop-color:rgb(155,155,155);stop-opacity:1"/><stop offset="0.93" style="stop-color:rgb(119,119,119);stop-opacity:1"/><stop offset="0.96" style="stop-color:rgb(77,77,77);stop-opacity:1"/><stop offset="1" style="stop-color:rgb(77,77,77);stop-opacity:1"/></linearGradient>
        <linearGradient id="_Linear8" x1="0" y1="0" x2="1" y2="0" gradientUnits="userSpaceOnUse" gradientTransform="matrix(-1.205433,13.821051,-13.821051,-1.205433,68.211049,27.241947)"><stop offset="0" style="stop-color:rgb(191,191,191);stop-opacity:1"/><stop offset="0.21" style="stop-color:rgb(102,102,102);stop-opacity:1"/><stop offset="0.27" style="stop-color:rgb(89,89,89);stop-opacity:1"/><stop offset="0.52" style="stop-color:rgb(41,41,41);stop-opacity:1"/><stop offset="0.7" style="stop-color:rgb(11,11,11);stop-opacity:1"/><stop offset="0.81" style="stop-color:black;stop-opacity:1"/><stop offset="1" style="stop-color:black;stop-opacity:1"/></linearGradient>
        <linearGradient id="_Linear9" x1="0" y1="0" x2="1" y2="0" gradientUnits="userSpaceOnUse" gradientTransform="matrix(0,51.274501,-51.274501,0,40.602774,0.603923)"><stop offset="0" style="stop-color:rgb(140,140,140);stop-opacity:1"/><stop offset="0.04" style="stop-color:rgb(140,140,140);stop-opacity:1"/><stop offset="0.19" style="stop-color:rgb(182,182,182);stop-opacity:1"/><stop offset="0.4" style="stop-color:rgb(235,235,235);stop-opacity:1"/><stop offset="0.51" style="stop-color:white;stop-opacity:1"/><stop offset="0.56" style="stop-color:rgb(250,250,250);stop-opacity:1"/><stop offset="0.63" style="stop-color:rgb(235,235,235);stop-opacity:1"/><stop offset="0.71" style="stop-color:rgb(211,211,211);stop-opacity:1"/><stop offset="0.79" style="stop-color:rgb(178,178,178);stop-opacity:1"/><stop offset="0.87" style="stop-color:rgb(135,135,135);stop-opacity:1"/><stop offset="0.95" style="stop-color:rgb(83,83,83);stop-opacity:1"/><stop offset="0.96" style="stop-color:rgb(77,77,77);stop-opacity:1"/><stop offset="1" style="stop-color:rgb(77,77,77);stop-opacity:1"/></linearGradient>
        <linearGradient id="_Linear10" x1="0" y1="0" x2="1" y2="0" gradientUnits="userSpaceOnUse" gradientTransform="matrix(1.204685,13.789157,-13.789157,1.204685,45.134154,27.263682)"><stop offset="0" style="stop-color:rgb(191,191,191);stop-opacity:1"/><stop offset="0.21" style="stop-color:rgb(102,102,102);stop-opacity:1"/><stop offset="0.27" style="stop-color:rgb(89,89,89);stop-opacity:1"/><stop offset="0.52" style="stop-color:rgb(41,41,41);stop-opacity:1"/><stop offset="0.7" style="stop-color:rgb(11,11,11);stop-opacity:1"/><stop offset="0.81" style="stop-color:black;stop-opacity:1"/><stop offset="1" style="stop-color:black;stop-opacity:1"/></linearGradient>
    </defs>
</svg>
