<?xml version="1.0" encoding="UTF-8" standalone="no"?>
<!DOCTYPE svg PUBLIC "-//W3C//DTD SVG 1.1//EN" "http://www.w3.org/Graphics/SVG/1.1/DTD/svg11.dtd">
<svg width="100%" height="100%" viewBox="0 0 175 92" version="1.1" xmlns="http://www.w3.org/2000/svg" xmlns:xlink="http://www.w3.org/1999/xlink" xml:space="preserve" xmlns:serif="http://www.serif.com/" style="fill-rule:evenodd;clip-rule:evenodd;stroke-linejoin:round;stroke-miterlimit:2;">
    <clipPath id="_clip1">
        <path d="M174.5,0L0,0L0,119.9L174.5,119.9"/>
    </clipPath>
    <g clip-path="url(#_clip1)">
        <path d="M52.3,42.2L58.3,42.2L60.9,37.6L67.1,37.6L67.2,42.2L72.7,42.2L71.5,21.4L63.3,21.4L63.2,22L63.5,22.3C63.9,22.7 63.8,23.3 62.2,25.9L52.3,42.2ZM66.8,27.2L67,27.2L67.1,33.5L63.3,33.5L66.8,27.2ZM135.8,28.9L122,28.9L120.2,33.8L129.8,33.8L118.9,37.5L118.2,39.3L133.9,34.1L135.8,28.9ZM101.3,24.2L95.1,42.3L104.3,42.3C108.2,42.3 110.5,41.4 112.3,39.5C114.6,37.1 116.7,30.8 116.6,27.4C116.5,23.9 114.3,21.6 109.5,21.6L101.2,21.6L101,22.1L101.4,22.5C101.6,22.7 101.6,23.2 101.3,24.2M106.3,26.4L108.6,26.4C110.1,26.4 111,26.9 111,28.1C111,28.9 110.8,29.9 110,32.2C109.3,34.2 108.7,35.4 107.9,36.3C107.3,37 106.4,37.3 104.4,37.3L102.5,37.3L106.3,26.4ZM74,42.2L79.2,42.2L83.7,28.8L86.4,42.2L91.6,42.2L98.7,21.4L93.2,21.4L89.4,32.7L87.2,21.4L80,21.4L79.8,22L80.2,22.4C80.6,22.8 80.6,23.2 80.2,24.2L74,42.2ZM36.7,42.3L50.9,42.3L52.6,37.3L44.4,37.3L49.8,21.5L42.7,21.5L42.5,22L42.9,22.4C43.3,22.8 43.3,23.2 42.9,24.2L36.7,42.3ZM78,46.5L77.3,46.5C73.4,46.5 71.1,47.6 69.3,49.5C67,51.9 64.9,58.4 64.9,61.9C64.9,65.4 67.2,67.9 72,67.9L72.7,67.9C76.6,67.9 78.9,66.8 80.7,64.9C83,62.5 85.1,56 85,52.5C85,48.9 82.8,46.5 78,46.5M78.3,57.5C77.6,59.5 77,60.9 76.2,61.7C75.5,62.4 74.7,62.9 72.7,62.9C71.2,62.9 70.3,62.3 70.3,61.1C70.3,60.3 70.5,59.2 71.3,56.9C72,54.9 72.6,53.5 73.4,52.7C74,52 74.9,51.5 76.9,51.5C78.4,51.5 79.3,52.1 79.3,53.3C79.3,54.1 79.1,55.2 78.3,57.5M145.1,19.8C127.9,10.9 106.5,7.5 87.3,7.5C68.1,7.5 46.7,10.9 29.5,19.8C19.8,24.8 7.6,33.8 7.6,45.9C7.6,58 19.9,67 29.5,72C46.6,81 68.1,84.4 87.3,84.4C106.5,84.4 127.9,81 145.1,72.1C154.8,67.1 167,58.1 167,46C167,33.8 154.7,24.8 145.1,19.8M144.2,70.4C127.3,79.1 106.2,82.5 87.3,82.5C68.4,82.5 47.3,79.2 30.4,70.4C21.4,65.7 9.4,57.2 9.4,46C9.4,34.7 21.3,26.2 30.3,21.6C47.2,12.8 68.3,9.5 87.2,9.5C106.1,9.5 127.2,12.8 144.1,21.6C153.1,26.2 165,34.8 165,46C165.1,57.2 153.2,65.7 144.2,70.4M148.5,13.1C132.1,4.7 110.4,0 87.3,0C64.1,0 42.4,4.7 26,13.1C16.3,18.1 0,29.1 0,45.9C0,62.8 16.3,73.7 26,78.7C42.4,87.2 64.1,91.8 87.3,91.8C110.4,91.8 132.2,87.1 148.6,78.7C158.3,73.7 174.6,62.7 174.6,45.9C174.5,29.1 158.2,18.1 148.5,13.1M146.4,74.6C130.7,82.7 109.7,87.2 87.3,87.2C64.9,87.2 43.9,82.7 28.2,74.6C13,66.8 4.6,56.6 4.6,46C4.6,35.3 12.9,25.1 28.1,17.3C43.9,9.1 64.9,4.6 87.3,4.6C109.7,4.6 130.7,9.1 146.4,17.2C161.5,25 169.9,35.2 169.9,45.9C169.9,56.6 161.5,66.8 146.4,74.6M134.6,46.8L125.6,46.8L125.4,47.3L125.8,47.7C126.2,48.1 126.2,48.5 125.8,49.5L119.5,67.6L125.2,67.6L127.6,60.4L129.5,60.4L131.7,67.6L137.5,67.6L134.8,60.2C136.4,59.9 137.2,59.5 137.9,58.8C139,57.8 139.7,56.4 140.4,54.4C141.3,51.4 140.8,49.7 140.2,48.9C139.5,47.6 137.8,46.8 134.6,46.8M135.1,54.3C134.7,55.2 134.3,55.4 133.8,55.6C133.4,55.7 132.7,55.8 132,55.8L129.3,55.8L130.8,51.5L134.1,51.5C135.1,51.5 135.5,52 135.5,52.6C135.5,53 135.4,53.7 135.1,54.3M58.2,46.8L49.2,46.8L49,47.3L49.4,47.7C49.8,48.1 49.8,48.5 49.4,49.5L43.1,67.6L48.8,67.6L51.3,60.4L53.2,60.4L55.4,67.6L61.2,67.6L58.5,60.2C60.1,59.9 60.9,59.5 61.7,58.8C62.8,57.8 63.5,56.4 64.1,54.4C65,51.4 64.5,49.7 63.9,48.9C63.1,47.6 61.4,46.8 58.2,46.8M58.7,54.3C58.3,55.2 57.9,55.4 57.4,55.6C57.1,55.7 56.3,55.8 55.6,55.8L52.9,55.8L54.4,51.5L57.7,51.5C58.7,51.5 59.1,52 59.1,52.6C59.2,53 59,53.7 58.7,54.3M43.9,49.4L28.2,54.6L26.3,59.9L40.1,59.9L41.9,54.9L32.3,54.9L43.2,51.2L43.9,49.4ZM100.9,46.8L93.3,61.7L93.1,61.7L92.7,46.8L86.3,46.8L86.1,47.3L86.6,47.6C87.1,48 87.3,48.3 87.3,49.4L88.2,67.5L95.3,67.5L106.7,46.7L100.9,46.7L100.9,46.8ZM118.4,59.2L120,54.9L112.7,54.9L113.8,51.6L121.7,51.6L123.4,46.8L108.5,46.8L108.3,47.4L108.7,47.8C109.1,48.2 109.1,48.6 108.7,49.6L102.5,67.6L116.5,67.6L118.2,62.8L110,62.8L111.2,59.3L118.4,59.3L118.4,59.2Z" style="fill:rgb(16,21,30);fill-rule:nonzero;"/>
    </g>
</svg>
