<?xml version="1.0" encoding="UTF-8" standalone="no"?>
<!DOCTYPE svg PUBLIC "-//W3C//DTD SVG 1.1//EN" "http://www.w3.org/Graphics/SVG/1.1/DTD/svg11.dtd">
<svg width="100%" height="100%" viewBox="0 0 64 51" version="1.1" xmlns="http://www.w3.org/2000/svg" xmlns:xlink="http://www.w3.org/1999/xlink" xml:space="preserve" xmlns:serif="http://www.serif.com/" style="fill-rule:evenodd;clip-rule:evenodd;stroke-linejoin:round;stroke-miterlimit:2;">
    <g transform="matrix(1,0,0,1,-5.134853,-0.000007)">
        <g transform="matrix(1,0,0,1,0,0.446472)">
            <g transform="matrix(1,0,0,1,1146.785,849.969)">
                <g transform="matrix(1,0,0,1,-1141.146,-849.912)">
                    <path d="M17.245,48.175C13.837,47.288 10.645,45.714 7.865,43.551C5.165,41.359 3.11,38.475 1.92,35.207C1.033,32.816 0.458,30.321 0.21,27.783C-0.158,24.769 -0.05,21.716 0.53,18.736C1.308,14.916 3.02,11.347 5.513,8.35C6.925,10.139 8.637,11.668 10.573,12.869C12.603,14.056 14.721,15.088 16.907,15.956C18.931,16.837 22.407,18.492 22.439,18.509C24.624,19.581 26.558,21.101 28.116,22.97C29.256,24.208 30.139,25.658 30.716,27.239C30.872,27.833 31.234,29.798 31.328,30.163C31.337,30.183 31.378,30.185 31.385,30.163C31.48,29.793 31.794,27.737 31.934,27.238C32.432,25.639 33.274,24.168 34.399,22.928C35.916,21.093 37.796,19.59 39.92,18.513C40.34,18.267 42.748,17.164 45.642,16.013C47.866,15.251 50.006,14.26 52.025,13.056C53.863,11.757 55.582,10.297 57.16,8.693L57.531,9.193C59.334,11.622 60.672,14.363 61.476,17.279C62.682,22.071 62.714,27.083 61.569,31.89C60.392,37.727 56.657,42.739 51.4,45.536C47.81,47.585 41.589,49.831 31.547,49.948C26.72,50.032 21.905,49.435 17.245,48.175ZM2.653,35.295C2.695,35.395 2.753,35.558 2.753,35.558C3.948,38.468 5.862,41.029 8.314,43C11.091,45.166 14.287,46.735 17.7,47.605C22.56,48.88 27.578,49.452 32.6,49.305C40.771,49.238 47.621,46.933 51.146,44.9C56.146,42.145 59.707,37.345 60.894,31.76C62.044,27.05 62.042,22.132 60.887,17.423C60.148,14.743 58.954,12.209 57.356,9.934L57.243,9.752C57.365,10.817 57.387,11.89 57.31,12.959C57.304,13.307 57.271,13.654 57.21,13.997C57.293,14.142 57.391,14.361 57.418,14.424C58.815,17.61 59.498,21.064 59.418,24.542C59.437,27.039 59.165,29.53 58.608,31.964C58.094,33.948 57.31,35.852 56.278,37.623C54.879,39.958 52.963,41.943 50.678,43.423C46.94,45.933 42.901,46.816 39.142,47.481C36.52,47.905 33.867,48.11 31.211,48.095C28.213,48.084 25.221,47.852 22.257,47.401C17.65,46.849 13.29,45.012 9.678,42.1C8.408,40.868 7.27,39.506 6.284,38.036C5.96,37.582 5.541,37.205 5.056,36.931L4.956,36.891C4.556,36.731 4.037,36.527 3.648,36.344C3.301,36.145 3.012,35.856 2.813,35.509L2.677,35.281C2.677,35.281 2.664,35.268 2.657,35.268C2.65,35.268 2.648,35.275 2.653,35.295ZM7.653,27.033C7.79,28.923 8.118,30.794 8.634,32.618C9.529,35.898 11.367,38.845 13.918,41.092C15.831,42.765 18.12,43.954 20.589,44.557C24.006,45.349 27.505,45.725 31.012,45.678C33.728,45.73 36.444,45.535 39.125,45.097C42.343,44.536 49.047,42.654 52.337,36.341C53.694,33.658 54.522,30.738 54.774,27.741C54.857,26.841 54.874,26.326 54.874,26.326C55.035,24.244 54.921,22.15 54.537,20.098C52.515,21.348 50.276,22.209 47.937,22.637C47.252,22.794 45.543,23.328 45.537,23.329C42.996,24.073 40.582,25.198 38.379,26.667C36.779,27.754 35.409,29.145 34.346,30.761C33.677,31.84 33.13,32.99 32.715,34.19C32.3,35.39 32.402,35.124 32.272,35.407C32.089,35.888 31.763,36.234 31.372,36.238C31.027,36.238 30.765,36.033 30.557,35.491L30.257,34.823C29.729,33.491 29.048,32.225 28.226,31.051C27.13,29.496 25.814,28.108 24.32,26.93C21.82,25.03 19.713,24.393 16.649,23.509C11.6,22.1 9.739,21.281 7.9,20.157C7.612,22.437 7.53,24.738 7.656,27.033L7.653,27.033ZM3.607,24.669C3.501,28.308 4.133,31.93 5.465,35.318C5.918,36.759 7.684,37.7 8.914,38.3C9.205,38.44 9.479,38.576 9.707,38.7C10.893,39.409 12.01,40.226 13.046,41.14C13.068,41.155 13.083,41.14 13.067,41.123C11.061,39.38 9.539,37.149 8.648,34.645C7.702,32.224 7.136,29.67 6.972,27.076C6.834,24.663 6.95,22.242 7.319,19.854C6.522,18.31 5.871,16.694 5.375,15.029C4.172,18.099 3.572,21.372 3.607,24.669ZM55.212,19.642C55.589,21.831 55.728,24.054 55.626,26.272C55.468,29.905 54.512,33.46 52.826,36.682C52.48,37.272 52.163,37.854 51.793,38.382C51.771,38.413 51.793,38.412 51.806,38.396C52.376,37.648 53.04,36.976 53.781,36.396C53.948,36.277 54.701,35.745 54.881,35.613C56.605,34.376 57.474,33.243 57.73,32.195C58.342,30.121 58.664,27.972 58.687,25.81C58.916,22.195 58.37,18.572 57.087,15.184C56.593,16.721 55.966,18.213 55.213,19.642L55.212,19.642ZM47.63,18.925C47.446,18.986 47.23,19.068 46.978,19.155C44.885,19.89 40.496,21.376 38.283,23.134C36.698,24.357 35.296,25.8 34.119,27.42C33.318,28.488 32.615,29.626 32.019,30.82C31.934,31.007 31.545,31.905 31.519,31.961C31.445,32.115 31.355,32.13 31.355,32.13C31.355,32.13 31.367,35.413 31.36,35.493C31.36,35.493 31.596,35.545 31.786,35.126C31.976,34.707 32.025,34.48 32.195,34.026C32.607,32.805 33.157,31.635 33.833,30.538C34.957,28.825 36.395,27.339 38.07,26.159C40.349,24.624 42.855,23.455 45.496,22.695C46.457,22.412 47.359,22.165 48.004,21.995C50.412,21.526 52.698,20.564 54.717,19.17C55.436,17.725 56.07,16.239 56.617,14.72C53.744,16.37 50.738,17.776 47.63,18.925ZM6.82,17.2C7.208,18.213 7.746,19.272 7.746,19.272C10.033,20.715 12.533,21.786 15.155,22.447C16.395,22.774 17.783,23.147 19.173,23.447C20.42,23.692 21.639,24.06 22.813,24.547C24.743,25.421 26.53,26.582 28.113,27.991C29.059,28.872 29.867,29.889 30.513,31.009C30.532,31.058 30.63,31.201 30.667,31.167C30.704,31.133 30.717,31.147 30.733,31.12C30.749,31.093 30.747,31.071 30.71,31.003C30.065,29.794 29.356,28.621 28.586,27.487C27.615,26.195 26.519,25.002 25.313,23.925C24.776,23.454 23.555,22.195 19.72,20.803C18.845,20.485 15.756,19.403 12.769,18.212C10.353,17.307 8.053,16.118 5.918,14.67C3.783,13.222 6.58,16.572 6.82,17.2ZM44.465,6C42.665,5.165 38.993,3.556 31.02,3.591C26.979,3.494 22.955,4.151 19.155,5.53C17.453,6.192 15.865,7.115 14.448,8.267C13.276,9.278 12.207,10.403 11.256,11.625C10.314,11.032 9.416,10.371 8.57,9.648C7.751,9.003 7.007,8.267 6.353,7.455C6.96,6.825 7.611,6.239 8.3,5.7C10.046,4.382 11.973,3.322 14.02,2.551C16.024,1.76 18.109,1.19 20.237,0.851C23.849,0.243 27.509,-0.042 31.172,0C42.009,0 49.31,1.821 54.225,5.74C54.967,6.345 55.667,7 56.32,7.7C55.641,8.459 54.902,9.161 54.11,9.8C53.277,10.536 52.394,11.212 51.466,11.823C49.656,9.327 47.249,7.325 44.465,6ZM31.291,3.034L31.3,3.034C39.315,3.034 42.963,4.695 44.717,5.494C47.44,6.757 49.805,8.679 51.598,11.087C53.026,10.114 54.344,8.989 55.529,7.732C54.407,8.119 53.242,8.567 52.952,8.663C49.649,5.54 45.5,3.456 41.022,2.673C37.821,2.027 34.561,1.721 31.296,1.76C26.488,1.621 21.692,2.301 17.113,3.772C15.516,4.359 13.989,5.123 12.56,6.048C11.52,6.804 10.54,7.64 9.63,8.548C8.72,9.456 7.108,7.457 7.163,7.52C8.383,8.751 9.714,9.868 11.138,10.857C13.174,8.278 15.844,6.269 18.887,5.029C22.808,3.632 26.949,2.955 31.11,3.029L31.291,3.034Z" style="fill:white;fill-rule:nonzero;"/>
                </g>
                <g transform="matrix(1,0,0,1,-1141.146,-849.912)">
                    <path d="M31.545,50.448C26.674,50.538 21.816,49.935 17.115,48.657C13.638,47.755 10.383,46.149 7.552,43.939C4.779,41.695 2.669,38.736 1.452,35.383C0.55,32.953 -0.034,30.417 -0.286,27.838C-0.661,24.773 -0.552,21.669 0.039,18.638L0.039,18.624C0.836,14.725 2.586,11.082 5.133,8.024L5.539,7.558L5.909,8.053C7.294,9.788 8.964,11.276 10.846,12.453C12.855,13.622 14.948,14.64 17.107,15.5C19.072,16.356 22.448,17.961 22.653,18.059C24.905,19.158 26.898,20.723 28.5,22.651C29.697,23.935 30.614,25.454 31.193,27.111C31.228,27.245 31.273,27.441 31.322,27.671C31.369,27.429 31.411,27.229 31.446,27.105C31.961,25.434 32.838,23.898 34.014,22.605C35.58,20.731 37.507,19.191 39.679,18.075C40.22,17.766 42.697,16.648 45.451,15.556C47.64,14.802 49.748,13.828 51.74,12.648C53.468,11.426 55.089,10.06 56.586,8.564L56.543,8.224C56.307,8.487 55.843,8.917 54.443,10.178C53.585,10.937 52.674,11.633 51.717,12.261L51.317,12.496L51.054,12.113C49.291,9.694 46.954,7.75 44.254,6.457C42.711,5.741 39.083,4.057 31.019,4.093L31.013,4.093C27.036,4.004 23.077,4.651 19.335,6C17.682,6.643 16.14,7.54 14.764,8.658C13.619,9.648 12.574,10.748 11.645,11.943L11.383,12.266L11.018,12.066C10.042,11.456 9.113,10.773 8.239,10.024C7.37,9.344 6.588,8.559 5.911,7.688L5.741,7.365L6,7.1C6.624,6.454 7.292,5.852 8,5.3C9.783,3.955 11.75,2.872 13.84,2.084C15.875,1.285 17.991,0.709 20.15,0.367C23.791,-0.249 27.48,-0.539 31.172,-0.5C42.1,-0.5 49.526,1.357 54.53,5.344C55.149,5.838 55.734,6.372 56.281,6.944L56.772,6.774L56.504,7.174C56.616,7.29 56.683,7.361 56.685,7.365L56.967,7.665L56.734,7.985L56.896,8.246L57.211,7.921L57.93,8.893C59.768,11.373 61.133,14.17 61.957,17.145C63.18,21.954 63.229,26.988 62.1,31.82L62.063,31.995C60.854,37.973 57.027,43.105 51.643,45.97C48.18,47.946 41.883,50.327 31.543,50.448L31.545,50.448ZM4,37.045C5.169,39.186 6.745,41.078 8.638,42.616C11.363,44.738 14.498,46.273 17.845,47.125C22.303,48.329 26.909,48.895 31.526,48.805C31.945,48.805 32.326,48.805 32.6,48.8C36.277,48.773 39.936,48.286 43.492,47.351C46.074,46.705 48.563,45.734 50.9,44.461C53.294,43.11 55.387,41.283 57.049,39.093C58.684,36.878 59.83,34.341 60.409,31.649L60.409,31.641C60.829,29.853 61.097,28.032 61.209,26.198C61.428,23.293 61.155,20.372 60.403,17.557C59.826,15.474 58.969,13.478 57.855,11.626C57.855,12.057 57.847,12.526 57.806,12.989C57.799,13.297 57.772,13.604 57.726,13.909C57.804,14.065 57.869,14.216 57.873,14.224C59.303,17.471 60.002,20.993 59.92,24.54C59.937,27.074 59.661,29.602 59.098,32.073C58.569,34.105 57.767,36.057 56.713,37.873C55.279,40.279 53.309,42.322 50.957,43.842C47.112,46.423 42.888,47.33 39.23,47.977C36.653,48.394 34.047,48.602 31.437,48.599L31.209,48.599C28.188,48.588 25.171,48.354 22.184,47.899C19.802,47.564 17.471,46.937 15.242,46.032C13.111,45.156 11.126,43.959 9.356,42.484L9.351,42.484C8.155,41.356 7.088,40.098 6.169,38.735C6.043,38.559 5.944,38.419 5.89,38.351C5.62,37.966 5.273,37.643 4.87,37.4L4.661,37.317C4.456,37.232 4.225,37.14 4,37.045ZM10,41.721C11.691,43.13 13.588,44.272 15.624,45.109C17.775,45.981 20.025,46.586 22.324,46.909C25.264,47.357 28.234,47.587 31.208,47.598L31.43,47.598C33.982,47.601 36.53,47.398 39.049,46.991C42.769,46.333 46.71,45.483 50.393,43.01C52.618,41.575 54.482,39.646 55.839,37.373C56.504,36.209 57.075,34.994 57.547,33.74C56.889,34.628 56.085,35.397 55.169,36.015L54.54,36.462L54.065,36.799C53.36,37.352 52.729,37.993 52.188,38.707L52.168,38.732L52.145,38.754C52.048,38.849 51.917,38.902 51.781,38.903L51.481,38.903L51.399,38.749C49.932,40.65 48.069,42.208 45.939,43.316C43.828,44.42 41.558,45.187 39.21,45.589C36.64,46.014 34.038,46.211 31.433,46.179L30.815,46.179C27.332,46.213 23.857,45.83 20.465,45.04C17.923,44.415 15.568,43.191 13.595,41.471L13.586,41.463L13.506,41.391C13.416,41.549 13.246,41.647 13.064,41.646C12.956,41.644 12.851,41.609 12.764,41.546L12.727,41.518L12.659,41.461C11.669,40.589 10.601,39.81 9.468,39.134C9.23,39.001 8.933,38.856 8.701,38.745C7.84,38.355 7.03,37.861 6.291,37.272C6.459,37.451 6.591,37.618 6.681,37.728C6.749,37.815 6.849,37.955 6.987,38.149C7.858,39.446 8.868,40.644 10,41.721ZM14.248,40.721C16.101,42.346 18.32,43.497 20.715,44.078C24.026,44.845 27.417,45.214 30.815,45.178L31.427,45.178C33.972,45.21 36.515,45.018 39.027,44.604C41.272,44.22 43.443,43.488 45.461,42.434C48.205,41.036 50.453,38.828 51.9,36.11C53.235,33.487 54.044,30.628 54.283,27.694C54.363,26.828 54.383,26.314 54.383,26.309L54.383,26.3C54.485,24.498 54.427,22.691 54.209,20.9C52.278,21.933 50.207,22.683 48.062,23.126C47.548,23.244 46.339,23.609 45.706,23.807L45.685,23.814C43.201,24.545 40.841,25.645 38.685,27.079C37.139,28.129 35.814,29.472 34.785,31.033C34.134,32.078 33.602,33.192 33.2,34.356C33.157,34.483 32.884,35.294 32.747,35.599C32.576,36.224 32.031,36.679 31.386,36.737L31.372,36.737C30.804,36.737 30.378,36.383 30.105,35.685L29.805,35.029L29.805,35.024L29.682,34.745C29.196,33.544 28.574,32.403 27.826,31.345C26.757,29.829 25.475,28.475 24.019,27.326C21.547,25.443 19.437,24.833 16.519,23.99C12,22.732 10,21.931 8.3,20.976C8.092,22.977 8.044,24.991 8.155,27L8.155,27.01C8.29,28.859 8.612,30.69 9.116,32.475C9.981,35.666 11.768,38.533 14.251,40.716L14.248,40.721ZM5.341,16.521C4.499,19.148 4.081,21.892 4.104,24.651L4.104,24.678C4.002,28.251 4.621,31.808 5.924,35.136L5.939,35.177C6.313,36.37 7.839,37.235 9.127,37.854C9.349,37.961 9.627,38.097 9.872,38.23C9.19,37.162 8.622,36.024 8.179,34.837C7.213,32.367 6.636,29.761 6.469,27.114L6.469,27.1C6.341,24.707 6.449,22.306 6.791,19.934C6.221,18.833 5.737,17.688 5.344,16.512L5.341,16.521ZM3.233,35.244C3.384,35.509 3.599,35.732 3.858,35.893C4.2,36.054 4.658,36.237 5.031,36.385L5.24,36.468C5.449,36.559 5.643,36.68 5.816,36.828C5.448,36.447 5.17,35.99 5,35.489C3.651,32.05 3.007,28.374 3.107,24.681C3.073,21.311 3.687,17.966 4.916,14.828L5.208,14.154L4.95,13.414L5.397,13.714L5.439,13.614L5.491,13.773L6.196,14.249C7.991,15.492 9.923,16.523 11.955,17.322C12.282,17.458 12.62,17.598 12.96,17.746C15.468,18.746 18.07,19.676 19.321,20.124L19.889,20.324C21.965,20.95 23.884,22.009 25.52,23.432L25.641,23.541C26.881,24.648 28.007,25.878 29,27.211L28.587,27.493L29.003,27.215C29.139,27.415 30.146,28.931 30.789,30.078C30.745,29.873 30.683,29.561 30.599,29.139C30.471,28.493 30.311,27.689 30.226,27.365C29.675,25.852 28.825,24.465 27.726,23.288C26.213,21.477 24.338,20.003 22.221,18.96L22.211,18.96C22.186,18.948 18.716,17.295 16.703,16.419C14.493,15.537 12.353,14.49 10.3,13.287C8.506,12.148 6.888,10.751 5.5,9.142C3.28,11.978 1.747,15.291 1.024,18.82L1.024,18.834C0.454,21.764 0.348,24.765 0.712,27.728C0.949,30.167 1.493,32.567 2.329,34.87L2.404,34.77L2.656,34.77C2.801,34.771 2.939,34.832 3.037,34.938L3.076,34.979L3.233,35.244ZM56.126,26.289C55.983,29.533 55.234,32.721 53.918,35.689L53.97,35.652L54.594,35.209C55.808,34.498 56.745,33.393 57.248,32.079L57.256,32.046L57.268,32.015C57.857,29.994 58.167,27.903 58.19,25.798C58.383,22.737 58.01,19.667 57.09,16.742C56.59,18.028 55.949,19.3 55.728,19.73C56.093,21.896 56.226,24.094 56.126,26.288L56.126,26.289ZM30.713,34.617L30.858,34.935C30.858,34.241 30.858,33.021 30.851,32.13L30.851,31.705L31.101,31.663L31.247,31.329C31.361,31.067 31.489,30.774 31.547,30.643C31.486,30.666 31.421,30.678 31.356,30.678C31.255,30.678 31.155,30.65 31.069,30.596C31.102,30.663 31.133,30.726 31.16,30.785C31.268,30.968 31.268,31.196 31.16,31.379C31.107,31.468 31.031,31.54 30.939,31.588C30.854,31.645 30.753,31.675 30.651,31.675C30.393,31.653 30.169,31.489 30.07,31.25C29.451,30.177 28.676,29.203 27.77,28.359C26.225,26.986 24.482,25.854 22.6,25C22.1,24.777 21.584,24.591 21.056,24.444C22.33,24.985 23.53,25.686 24.627,26.53L24.634,26.536C26.164,27.743 27.511,29.165 28.634,30.758C29.424,31.873 30.082,33.076 30.594,34.343L30.713,34.617ZM31.851,32.359L31.851,33.491C32.249,32.361 32.769,31.279 33.403,30.263C34.56,28.495 36.041,26.963 37.769,25.748C40.023,24.222 42.5,23.054 45.111,22.286L45.346,22.21C46.468,21.88 47.407,21.627 47.867,21.51C50.173,21.062 52.365,20.154 54.312,18.841C54.792,17.868 55.296,16.712 55.658,15.818C53.135,17.222 50.503,18.42 47.787,19.4C47.68,19.435 47.554,19.481 47.421,19.529L47.144,19.629L46.818,19.743C44.656,20.5 40.632,21.908 38.594,23.527C37.042,24.725 35.669,26.14 34.518,27.727C33.736,28.767 33.049,29.876 32.466,31.04C32.416,31.151 32.275,31.474 32.166,31.734C32.024,32.059 31.984,32.151 31.966,32.179C31.935,32.243 31.897,32.303 31.852,32.359L31.851,32.359ZM56.745,9.806C55.359,11.142 53.873,12.368 52.299,13.476C50.252,14.703 48.081,15.711 45.822,16.483C42.857,17.659 40.515,18.743 40.169,18.946L40.133,18.965C38.077,20.022 36.254,21.482 34.773,23.257C33.697,24.443 32.892,25.848 32.412,27.375C32.34,27.634 32.2,28.441 32.088,29.089C32.033,29.408 31.988,29.667 31.951,29.868C32.473,28.91 33.064,27.991 33.721,27.12C34.923,25.466 36.355,23.992 37.974,22.743C40.144,21.019 44.274,19.574 46.489,18.798L46.814,18.684L47.084,18.584C47.224,18.534 47.355,18.484 47.475,18.447C50.547,17.305 53.519,15.911 56.36,14.278L56.69,14.087L56.715,13.92C56.721,13.881 56.727,13.845 56.733,13.807C56.78,13.519 56.806,13.228 56.811,12.936L56.811,12.911C56.885,11.878 56.863,10.84 56.746,9.811L56.745,9.806ZM15.291,21.965L15.708,22.075C16.808,22.366 18.058,22.696 19.281,22.963C20.567,23.214 21.823,23.595 23.032,24.1C24.523,24.797 25.941,25.643 27.262,26.625C26.551,25.804 25.791,25.027 24.984,24.3L24.853,24.183C23.312,22.849 21.506,21.857 19.553,21.272L18.989,21.072C17.732,20.621 15.115,19.684 12.589,18.679L12.574,18.673C12.239,18.527 11.918,18.394 11.574,18.253C9.938,17.611 8.365,16.82 6.874,15.89C7.033,16.337 7.192,16.779 7.285,17.022C7.585,17.822 7.994,18.652 8.137,18.94C10.348,20.319 12.762,21.34 15.291,21.965ZM31.3,2.534C39.424,2.534 43.139,4.226 44.924,5.039L44.933,5.039C47.571,6.283 49.889,8.118 51.705,10.4C52.336,9.942 52.941,9.458 53.463,9.015C53.302,9.074 53.181,9.115 53.106,9.143L52.823,9.237L52.606,9.037C49.375,5.971 45.308,3.927 40.919,3.163C37.749,2.525 34.521,2.223 31.288,2.263C26.542,2.129 21.806,2.798 17.283,4.242C15.732,4.815 14.248,5.555 12.857,6.45C11.84,7.192 10.882,8.011 9.991,8.9L9.75,9.15L9.65,9.105C10.15,9.512 10.65,9.895 11.05,10.184C13.099,7.711 15.727,5.781 18.7,4.565L18.707,4.565C22.685,3.148 26.885,2.461 31.107,2.536L31.3,2.536L31.3,2.534ZM31.3,1.261C34.598,1.221 37.89,1.53 41.123,2.183L41.128,2.183C45.592,2.965 49.738,5.016 53.068,8.091L53.46,7.947C53.94,7.77 54.585,7.532 55.231,7.307C54.822,6.892 54.388,6.504 53.931,6.143L53.917,6.132C49.1,2.289 41.87,0.5 31.172,0.5C27.538,0.461 23.908,0.746 20.325,1.351L20.32,1.351C18.228,1.683 16.178,2.241 14.207,3.017L14.2,3.017C12.196,3.772 10.31,4.81 8.6,6.1C8.236,6.378 7.849,6.708 7.444,7.086C7.707,7.186 8.255,7.411 9.515,7.956C10.377,7.124 11.295,6.351 12.262,5.643C13.73,4.69 15.301,3.904 16.944,3.3C21.578,1.816 26.429,1.126 31.293,1.261L31.3,1.261Z" style="fill-rule:nonzero;"/>
                </g>
            </g>
        </g>
    </g>
</svg>
