<svg version="1.1" id="Layer_1" xmlns="http://www.w3.org/2000/svg" xmlns:xlink="http://www.w3.org/1999/xlink" x="0px" y="0px" viewBox="0 0 98 82.2" style="enable-background:new 0 0 98 82.2;" xml:space="preserve">
 <g id="Global_x2F_Logos_x2F_Logo-White-115x116">
  <g id="Nissan-Brand-Logo-RGB-W-w_R" transform="translate(8.000000, 16.000000)">
   <path id="Path" d="M5.9,12.7C11-2.1,25.1-12.1,41-12.1s30,10,35.1,24.8l0,0.1h11.2v-1.3L82.7,11c-2.9-0.3-3.5-1.6-4.3-3.2
			l-0.2-0.4C71.5-6.8,56.9-16,41-16S10.5-6.8,3.7,7.4L3.5,7.8C2.8,9.4,2.1,10.7-0.7,11l-4.7,0.5v1.3H5.8L5.9,12.7z">
   </path>
   <path id="Path_1_" d="M76.2,37.4l0,0.1C71,52.3,56.9,62.3,41,62.3l0,0c-15.9,0-30-10-35.1-24.8l0-0.1H-5.4v1.3l4.7,0.5
			c2.9,0.3,3.5,1.6,4.3,3.2l0.2,0.4C10.4,57,25.1,66.2,41,66.2l0,0c15.9,0,30.5-9.2,37.3-23.4l0.2-0.4c0.8-1.6,1.4-2.8,4.3-3.2
			l4.7-0.5v-1.3L76.2,37.4z">
   </path>
   <rect id="Rectangle" x="12.1" y="19.9" width="2.6" height="11.4">
   </rect>
   <polygon id="Path_2_" points="6,31.2 6,19.9 3.5,19.9 3.5,28.4 -4.8,19.9 -8,19.9 -8,31.2 -5.5,31.2 -5.5,22.7 2.9,31.2 		">
   </polygon>
   <path id="Shape" d="M62.9,19.9l-7,11.4h3l1.2-2h8.1l1.2,2h3l-7-11.4H62.9z M67,27.1h-5.6l2.8-4.6L67,27.1z">
   </path>
   <path id="Path_3_" d="M48.8,28.9c-0.1,0-0.4,0-0.5,0H37.8v2.3h10.6c0.1,0,0.7,0,0.8,0c2.2-0.2,3.1-1.9,3.1-3.5s-1-3.2-3-3.4
			c-0.3,0-0.6,0-0.8,0h-6.9c-0.3,0-0.5,0-0.8-0.1c-0.5-0.1-0.8-0.5-0.7-1c0-0.5,0.3-0.9,0.8-1c0.2-0.1,0.5-0.1,0.7-0.1h10v-2.3H41.5
			c-0.3,0-0.7,0-1,0.1c-1.7,0.2-3,1.6-3,3.3c0,1.4,0.9,3.1,2.9,3.3c0.4,0,0.7,0.1,1.1,0h6.7c0.1,0,0.4,0,0.5,0c0.6,0.1,1,0.6,1,1.1
			C49.7,28.3,49.3,28.8,48.8,28.9">
   </path>
   <path id="Path_4_" d="M30.4,28.9c-0.1,0-0.4,0-0.5,0H19.5v2.3H30c0.1,0,0.7,0,0.8,0C33,31,34,29.3,34,27.8s-1-3.2-3-3.4
			c-0.3,0-0.6,0-0.8,0h-6.9c-0.3,0-0.5,0-0.8-0.1c-0.5-0.1-0.8-0.5-0.7-1c0-0.5,0.3-0.9,0.8-1c0.2-0.1,0.5-0.1,0.7-0.1h10v-2.3H23.1
			c-0.3,0-0.7,0-1,0.1c-1.7,0.2-3,1.6-3,3.3c0,1.4,0.9,3.1,2.9,3.3c0.4,0,0.7,0.1,1.1,0h6.7c0.1,0,0.4,0,0.5,0c0.6,0.1,1,0.6,1,1.1
			C31.4,28.3,30.9,28.8,30.4,28.9">
   </path>
   <polygon id="Path_5_" points="90,31.2 90,19.9 87.5,19.9 87.5,28.4 79.2,19.9 76,19.9 76,31.2 78.5,31.2 78.5,22.7 86.9,31.2 		
			">
   </polygon>
   <path id="Shape_1_" d="M83.5,59.3c1.2,0,2.2,1,2.2,2.2c0,1.2-1,2.2-2.2,2.2c-1.2,0-2.2-1-2.2-2.2c0-0.6,0.2-1.1,0.7-1.6
			C82.3,59.5,82.9,59.2,83.5,59.3z M83.5,63.2c0.5,0,0.9-0.2,1.2-0.5c0.3-0.3,0.5-0.8,0.5-1.2c0-0.9-0.8-1.7-1.7-1.6
			c-0.9,0-1.7,0.8-1.7,1.7C81.8,62.4,82.5,63.2,83.5,63.2L83.5,63.2z M82.6,62.6v-2.2c0.3,0,0.5-0.1,0.8-0.1c0.4,0,1,0.1,1,0.6
			c0,0.3-0.2,0.5-0.5,0.5v0c0.2,0.1,0.3,0.3,0.4,0.5c0,0.2,0.1,0.4,0.2,0.5H84c-0.1-0.2-0.1-0.4-0.2-0.5c-0.1-0.3-0.3-0.3-0.7-0.3
			v0.9L82.6,62.6z M83.1,61.3c0.4,0,0.8,0,0.8-0.3c0-0.2-0.1-0.3-0.5-0.3c-0.1,0-0.2,0-0.3,0V61.3z">
   </path>
  </g>
 </g>
</svg>