<?xml version="1.0" encoding="UTF-8" standalone="no"?>
<!DOCTYPE svg PUBLIC "-//W3C//DTD SVG 1.1//EN" "http://www.w3.org/Graphics/SVG/1.1/DTD/svg11.dtd">
<svg width="100%" height="100%" viewBox="0 0 282 182" version="1.1" xmlns="http://www.w3.org/2000/svg" xmlns:xlink="http://www.w3.org/1999/xlink" xml:space="preserve" xmlns:serif="http://www.serif.com/" style="fill-rule:evenodd;clip-rule:evenodd;stroke-linejoin:round;stroke-miterlimit:2;">
    <g transform="matrix(1,0,0,1,-509.375,-184.614)">
        <path d="M712.538,193.514C695.138,187.919 673.475,184.614 650.008,184.614C626.541,184.614 604.874,187.92 587.469,193.514C541.18,208.395 509.375,239.299 509.375,275.014C509.375,325.255 572.334,365.993 650.008,365.993C727.663,365.993 790.625,325.255 790.625,275.014C790.625,239.301 758.819,208.407 712.538,193.514M650.008,326.873C638.416,326.873 628.951,304.085 628.396,275.449C635.366,276.076 642.596,276.412 650.008,276.412C657.42,276.412 664.639,276.076 671.617,275.449C671.057,304.085 661.595,326.873 650.008,326.873M629.856,253.03C633.016,232.93 640.843,218.692 650.008,218.692C659.173,218.692 666.989,232.93 670.146,253.03C663.707,253.612 656.962,253.93 650.008,253.93C643.054,253.93 636.308,253.608 629.856,253.03M682.462,251.514C677.762,219.965 665.006,197.349 650.008,197.349C635.01,197.349 622.246,219.965 617.544,251.514C588.978,247.054 569.011,236.905 569.011,225.082C569.011,209.15 605.276,196.234 650.011,196.234C694.746,196.234 731,209.15 731,225.082C731,236.905 711.033,247.054 682.465,251.514M529.9,271.681C529.9,256.281 535.827,241.845 546.17,229.428C546.051,230.29 545.991,231.158 545.989,232.028C545.989,251.402 575.089,267.871 615.666,273.928C615.634,275.391 615.61,276.857 615.61,278.339C615.61,314.363 625.602,344.876 639.417,355.396C578.039,351.645 529.9,315.605 529.9,271.681M660.6,355.4C674.408,344.88 684.4,314.369 684.4,278.343C684.4,276.861 684.384,275.395 684.351,273.932C724.917,267.877 754.023,251.408 754.023,232.032C754.02,231.162 753.957,230.293 753.836,229.432C764.177,241.849 770.107,256.283 770.107,271.685C770.107,315.609 721.966,351.649 660.607,355.402" style="fill:rgb(235,10,30);fill-rule:nonzero;"/>
    </g>
</svg>
