<?xml version="1.0" encoding="UTF-8" standalone="no"?>
<!DOCTYPE svg PUBLIC "-//W3C//DTD SVG 1.1//EN" "http://www.w3.org/Graphics/SVG/1.1/DTD/svg11.dtd">
<svg width="100%" height="100%" viewBox="0 0 104 21" version="1.1" xmlns="http://www.w3.org/2000/svg" xmlns:xlink="http://www.w3.org/1999/xlink" xml:space="preserve" xmlns:serif="http://www.serif.com/" style="fill-rule:evenodd;clip-rule:evenodd;stroke-linejoin:round;stroke-miterlimit:2;">
    <g transform="matrix(1,0,0,1,0,-0.3234)">
        <path d="M23.46,0.377C21.84,0.347 14.81,0.327 10.71,0.327L0,0.327L0,4.177C8.62,4.177 18.85,4.157 23.33,4.227C24.13,4.237 24.92,4.317 25.55,4.877C26.14,5.397 26.34,6.217 26.08,6.927C25.66,8.077 24.49,8.357 23.33,8.377C21.55,8.407 16.68,8.417 13.04,8.417C4.11,8.427 7.98,8.417 0,8.417L0,12.257C8.62,12.257 18.87,12.237 23.33,12.307C24.72,12.327 26.19,12.807 26.19,14.367C26.19,15.927 24.72,16.427 23.33,16.447C18.88,16.517 8.62,16.497 0,16.497L0,20.347C8.65,20.347 19.97,20.377 23.46,20.297C25.3,20.257 28.03,19.787 29.61,17.387C31.1,15.137 30.74,12.207 28.78,10.337C30.74,8.457 31.1,5.527 29.61,3.287C28.02,0.887 25.3,0.427 23.46,0.377ZM92.18,0.435C89.9,0.385 86.45,0.355 83.41,0.345C75.99,0.315 80.45,0.325 73.38,0.325L73.38,4.185C80.91,4.185 86.18,4.125 91.99,4.285C93.7,4.335 95.53,4.515 97.18,5.655C98.74,6.735 99.67,8.465 99.67,10.325C99.67,12.185 98.77,13.915 97.21,15.005C95.56,16.145 93.73,16.325 92.02,16.375C86.21,16.535 80.93,16.475 73.41,16.475L73.38,20.335C80.95,20.335 86.39,20.365 92.18,20.225C94.5,20.175 97.35,19.905 99.99,18.015C102.49,16.225 104,13.415 104,10.315C104,7.215 102.49,4.405 99.99,2.615L99.99,2.645C97.36,0.755 94.5,0.485 92.18,0.435ZM39.61,6.267C39.6,4.407 39.61,2.207 39.61,0.327L35.16,0.327C35.16,2.227 35.12,6.087 35.2,7.957C35.35,11.577 36.53,12.707 40.23,12.837C42.8,12.927 44.83,12.897 48.38,12.887L48.38,9.007C45.54,9.007 44.38,9.007 42.28,8.977C40.26,8.937 39.62,8.277 39.61,6.267ZM56.07,9.007C58.15,9.007 60.69,8.997 61.65,8.977C63.67,8.937 64.31,8.297 64.32,6.337L64.35,6.337L64.35,0.327L68.79,0.327L68.79,6.167C68.78,6.847 68.77,7.467 68.75,7.957C68.6,11.607 67.41,12.717 63.48,12.837C62.2,12.887 58.8,12.887 56.08,12.887L55.55,12.887L55.55,20.347L50.32,20.347L50.32,9.007L56.07,9.007Z" style="fill:rgb(83,0,0);fill-rule:nonzero;"/>
    </g>
</svg>
