<?xml version="1.0" encoding="UTF-8" standalone="no"?>
<!DOCTYPE svg PUBLIC "-//W3C//DTD SVG 1.1//EN" "http://www.w3.org/Graphics/SVG/1.1/DTD/svg11.dtd">
<svg width="100%" height="100%" viewBox="0 0 302 103" version="1.1" xmlns="http://www.w3.org/2000/svg" xmlns:xlink="http://www.w3.org/1999/xlink" xml:space="preserve" xmlns:serif="http://www.serif.com/" style="fill-rule:evenodd;clip-rule:evenodd;stroke-linejoin:round;stroke-miterlimit:2;">
    <g id="Artboard1" transform="matrix(0.949686,0,0,0.865546,-69.327044,-14.714286)">
        <rect x="73" y="17" width="318" height="119" style="fill:none;"/>
        <clipPath id="_clip1">
            <rect x="73" y="17" width="318" height="119"/>
        </clipPath>
        <g clip-path="url(#_clip1)">
            <g transform="matrix(1.05298,0,0,1.15534,-31.245033,18.15534)">
                <clipPath id="_clip2">
                    <rect x="99" y="0.001" width="301.006" height="101.31"/>
                </clipPath>
                <g clip-path="url(#_clip2)">
                    <path d="M13.356,164.57C13.356,155.381 20.83,147.929 30.048,147.929L83.352,147.929L90.028,136.836L27.823,136.836C19.08,136.831 10.826,140.946 5.567,147.932C1.95,152.722 -0.006,158.565 0,164.567C-0.008,170.571 1.948,176.417 5.567,181.208C10.822,188.198 19.076,192.316 27.82,192.311L83.352,192.311L90.029,181.218L30.048,181.218C23,181.223 16.675,176.764 14.311,170.125C13.679,168.345 13.356,166.469 13.355,164.58L13.355,164.574L13.356,164.57ZM397.346,153.477C397.346,144.285 389.872,136.836 380.654,136.836L307.318,136.836L313.994,147.932L380.654,147.932C383.728,147.932 386.218,150.413 386.218,153.477C386.218,156.541 383.728,159.022 380.654,159.022L307.318,159.022L307.318,192.31L320.671,192.31L320.671,170.118L370.03,170.118L382.883,192.31L397.348,192.31L384.271,169.723C391.874,168.051 397.34,161.26 397.348,153.476M481.114,136.835L449.409,161.156L417.704,136.835L398.121,136.835L441.506,170.117L441.506,192.309L456.618,192.309L456.618,170.12L500.006,136.835L481.114,136.835ZM218.254,153.338C218.332,150.345 220.815,147.926 223.809,147.928L288.255,147.928L294.934,136.835L221.594,136.835C212.376,136.835 204.898,144.286 204.898,153.476L204.898,192.306L288.254,192.306L294.934,181.213L218.254,181.213L218.254,170.12L274.898,170.12L281.577,159.024L218.253,159.024L218.254,153.338ZM359.364,66.29C352.332,69.469 344.114,68.572 337.861,64.056L329.608,58.094L274.044,17.985L273.858,17.854L273.692,17.732L273.3,17.46C271.018,15.873 263.967,11.104 258.752,9.021C258.731,9.031 258.711,9.046 258.688,9.059C258.279,8.868 257.862,8.695 257.438,8.54C257.403,8.527 257.374,8.511 257.339,8.505C256.016,8.014 254.647,7.657 253.253,7.44C255.375,7.453 257.474,7.482 259.567,7.53L260.955,7.559C295.715,8.405 326.596,13.255 348.218,20.53L348.228,20.53C368.148,27.229 380.212,35.995 380.212,45.575C380.212,53.213 372.552,60.325 359.359,66.29L359.364,66.29ZM302.569,80.476C286.492,82.559 268.707,83.716 250.008,83.716C231.306,83.716 213.524,82.562 197.447,80.479C182.761,77.835 189.835,67.908 193.681,63.646C193.717,63.599 193.757,63.557 193.803,63.521C194.733,62.492 195.454,61.816 195.582,61.701C195.598,61.691 195.601,61.681 195.601,61.681C198.118,59.136 200.668,56.623 203.248,54.143C211.583,46.104 220.233,38.4 229.178,31.047C231.848,28.851 234.518,26.71 237.178,24.637L237.197,24.624C237.481,24.388 237.773,24.163 238.072,23.947C240.117,22.431 245.31,18.967 250.008,18.979C254.704,18.967 259.896,22.431 261.937,23.947C262.043,24.018 262.133,24.088 262.22,24.159L262.454,24.335C262.559,24.412 262.646,24.483 262.7,24.531L262.793,24.604L262.835,24.636C265.53,26.74 268.199,28.877 270.842,31.047C279.782,38.401 288.429,46.106 296.762,54.143C299.351,56.629 301.908,59.148 304.432,61.7L304.499,61.771C304.736,61.982 305.377,62.604 306.181,63.482L306.191,63.492C310.005,67.666 317.425,77.8 302.57,80.479L302.569,80.476ZM162.149,64.056C155.899,68.572 147.681,69.469 140.652,66.29C127.46,60.328 119.796,53.213 119.796,45.575C119.796,35.995 131.863,27.229 151.783,20.53C173.398,13.257 204.293,8.405 239.052,7.559L240.443,7.53C242.543,7.482 244.642,7.453 246.764,7.44C245.341,7.658 243.979,8.017 242.671,8.504C242.658,8.51 242.632,8.51 242.623,8.517C242.183,8.683 241.749,8.865 241.322,9.062C241.301,9.047 241.28,9.033 241.258,9.02C236.043,11.104 228.989,15.873 226.707,17.459L226.322,17.732L225.963,17.988L170.402,58.094L162.146,64.056L162.149,64.056ZM350.319,12.764C328.928,6.386 301.992,2.008 272.207,0.546C265.102,0.195 257.989,0.014 250.874,0.001L249.128,0.001C241.884,0.014 234.769,0.196 227.801,0.546C198.006,2.007 171.07,6.379 149.676,12.764C119.035,21.905 99.766,35.168 99.766,49.927C99.766,62.427 113.596,73.863 136.436,82.619C145.708,86.17 156.468,89.292 168.401,91.853C178.099,93.946 188.58,95.68 199.661,96.981C215.398,98.84 232.347,99.859 250.004,99.859C267.658,99.859 284.603,98.843 300.34,96.981C310.836,95.768 321.269,94.056 331.602,91.853C343.533,89.289 354.295,86.17 363.567,82.619C386.411,73.862 400.235,62.427 400.235,49.927C400.235,35.171 380.963,21.905 350.325,12.764L350.319,12.764ZM179.089,136.834L179.089,159.023L115.768,159.023L115.768,136.834L102.412,136.834L102.412,192.308L115.768,192.308L115.768,170.116L179.089,170.116L179.089,192.308L192.445,192.308L192.445,136.834L179.089,136.834Z" style="fill:rgb(49,49,49);fill-rule:nonzero;"/>
                </g>
            </g>
        </g>
    </g>
</svg>
