<?xml version="1.0" encoding="UTF-8" standalone="no"?>
<!DOCTYPE svg PUBLIC "-//W3C//DTD SVG 1.1//EN" "http://www.w3.org/Graphics/SVG/1.1/DTD/svg11.dtd">
<svg width="100%" height="100%" viewBox="0 0 506 628" version="1.1" xmlns="http://www.w3.org/2000/svg" xmlns:xlink="http://www.w3.org/1999/xlink" xml:space="preserve" xmlns:serif="http://www.serif.com/" style="fill-rule:evenodd;clip-rule:evenodd;stroke-linejoin:round;stroke-miterlimit:2;">
    <g transform="matrix(1,0,0,1,-176.36,-1)">
        <g transform="matrix(1,0,0,1,-107.95,-83.16)">
            <path id="path874" d="M537.16,84.16C397.74,84.16 284.31,224.93 284.31,397.95C284.31,570.97 397.74,711.75 537.16,711.75C676.58,711.75 790.02,570.98 790.02,397.95C790.02,224.92 676.59,84.16 537.16,84.16ZM330.91,506.56L330.67,505.83C322.29,479.92 319.8,457.22 319.78,456.99L319.75,456.67L320.01,456.48L537.16,295.9L754.58,456.67L754.55,456.99C754.52,457.22 752.04,479.92 743.66,505.83L743.42,506.56L742.8,506.1L742.79,506.13L537.15,353.62L330.92,506.59L330.91,506.56ZM537.16,682.13C464.74,682.13 396.94,637.28 354.98,561.92L354.48,560.95L537.15,425.87L719.85,560.97L719.37,561.84L719.38,561.85C677.43,637.25 609.63,682.13 537.16,682.13ZM537.16,222.44L314.12,387.87L314.15,386.73C316.4,313.34 340.61,244.71 382.3,193.49C424.15,142.09 479.14,113.78 537.16,113.78C595.18,113.78 650.17,142.09 692.02,193.49C733.72,244.71 757.92,313.34 760.17,386.73L760.2,387.87L759.28,387.19L537.16,222.44Z" style="fill-rule:nonzero;"/>
        </g>
    </g>
</svg>
