<?xml version="1.0" encoding="UTF-8" standalone="no"?>
<!DOCTYPE svg PUBLIC "-//W3C//DTD SVG 1.1//EN" "http://www.w3.org/Graphics/SVG/1.1/DTD/svg11.dtd">
<svg width="100%" height="100%" viewBox="0 0 451 280" version="1.1" xmlns="http://www.w3.org/2000/svg" xmlns:xlink="http://www.w3.org/1999/xlink" xml:space="preserve" xmlns:serif="http://www.serif.com/" style="fill-rule:evenodd;clip-rule:evenodd;stroke-linejoin:round;stroke-miterlimit:2;">
    <g transform="matrix(1,0,0,1,-2.011225,-0.00494)">
        <g transform="matrix(1,0,0,1,-1.7,-0.1)">
            <path d="M454.15,166.89L205.5,139.89L205.44,139.89L137.38,175.49C137.339,175.503 137.311,175.542 137.311,175.585C137.311,175.628 137.339,175.667 137.38,175.68L437.78,175.68L454.14,167.14C454.208,167.14 454.265,167.087 454.27,167.02C454.27,167.017 454.27,167.013 454.27,167.01C454.27,166.944 454.216,166.89 454.15,166.89C454.15,166.89 454.15,166.89 454.15,166.89Z" style="fill-rule:nonzero;"/>
        </g>
        <g transform="matrix(1,0,0,1,-1.7,-0.1)">
            <path d="M229,10C300.268,10.016 358.905,68.662 358.91,139.93C358.91,142.13 358.86,144.31 358.75,146.49L368.75,147.57C368.89,145.04 368.96,142.5 368.96,139.93C368.864,63.194 305.696,0.105 228.96,0.105C169.481,0.105 116.203,38.009 96.7,94.2L107.37,94.2C126.393,43.667 175.005,10.015 229,10Z" style="fill-rule:nonzero;"/>
        </g>
        <g transform="matrix(1,0,0,1,-1.7,-0.1)">
            <path d="M229,269.87C228.98,269.87 228.96,269.87 228.94,269.87C157.657,269.87 99,211.213 99,139.93L99,139.93C99,137.72 99.06,135.53 99.17,133.34L89.17,132.26C89.03,134.8 88.96,137.357 88.96,139.93C89.041,216.676 152.214,279.783 228.96,279.783C288.461,279.783 341.755,241.85 361.24,185.63L350.6,185.63C331.594,236.168 282.994,269.837 229,269.87Z" style="fill-rule:nonzero;"/>
        </g>
        <g transform="matrix(1,0,0,1,-1.7,-0.1)">
            <path d="M252.44,139.9L252.49,139.9L320.56,104.4C320.6,104.386 320.627,104.348 320.627,104.306C320.627,104.294 320.624,104.281 320.62,104.27C320.611,104.241 320.589,104.219 320.56,104.21L20.12,104.21L3.78,112.75C3.739,112.763 3.711,112.802 3.711,112.845C3.711,112.888 3.739,112.927 3.78,112.94L252.44,139.9Z" style="fill-rule:nonzero;"/>
        </g>
    </g>
</svg>
