<?xml version="1.0" encoding="UTF-8" standalone="no"?>
<!DOCTYPE svg PUBLIC "-//W3C//DTD SVG 1.1//EN" "http://www.w3.org/Graphics/SVG/1.1/DTD/svg11.dtd">
<svg width="100%" height="100%" viewBox="0 0 88 97" version="1.1" xmlns="http://www.w3.org/2000/svg" xmlns:xlink="http://www.w3.org/1999/xlink" xml:space="preserve" xmlns:serif="http://www.serif.com/" style="fill-rule:evenodd;clip-rule:evenodd;stroke-linejoin:round;stroke-miterlimit:2;">
    <g transform="matrix(1,0,0,1,-5,-5)">
        <g id="_--AP-1.Atoms-6.Logo-desktop-NBi21-white" serif:id="•-AP/1.Atoms/6.Logo/desktop/NBi21-white">
            <path id="Combined-Shape" d="M49.001,5C63.142,5 77.821,6.207 92.72,8.779C92.942,14.751 93.195,23.984 92.771,31.818C91.821,49.284 87.977,62.841 80.669,74.483C73.383,86.091 62.102,96.072 49.001,102C35.899,96.072 24.617,86.091 17.332,74.483C10.024,62.841 6.179,49.284 5.231,31.818C4.805,23.984 5.058,14.751 5.28,8.779C20.179,6.207 34.859,5 49.001,5ZM49.001,6.683C35.059,6.683 20.905,7.868 6.911,10.208C6.604,19.068 6.604,26.119 6.909,31.727C7.841,48.896 11.605,62.198 18.755,73.589C25.904,84.978 36.623,94.386 49.001,100.15C61.377,94.386 72.098,84.978 79.246,73.589C86.396,62.198 90.159,48.896 91.092,31.727C91.397,26.119 91.397,19.068 91.09,10.208C77.096,7.868 62.941,6.683 49.001,6.683ZM48.879,57.688C48.879,57.688 49.154,59.322 49.238,59.797C49.285,60.065 49.295,60.137 49.227,60.401C49.007,61.249 47.99,65.717 47.177,70.291L47.05,71.014C46.718,72.94 46.431,74.853 46.263,76.489C46.169,77.418 46.2,77.641 46.445,78.466C47.14,80.797 49.712,86.886 50.205,87.997C50.26,88.119 50.293,88.248 50.309,88.381L50.495,89.817C49.671,88.572 45.194,80.336 43.436,75.776C43.228,75.238 43.188,74.974 43.418,73.986C44.641,68.746 47.949,59.843 48.879,57.688ZM42.35,45.03C42.35,45.03 42.694,46.146 43.026,47.357L43.142,47.787C43.352,48.576 43.539,49.355 43.606,49.848C43.671,50.322 43.66,50.45 43.491,50.904C43.083,51.993 42.331,53.743 41.528,55.533L41.182,56.301C40.198,58.472 39.201,60.57 38.717,61.477C38.478,61.925 38.254,62.216 37.805,62.673C36.781,63.716 34.82,65.689 33.606,66.792C33.165,67.194 33.046,67.536 32.956,68.055C32.812,68.889 32.668,70.312 32.628,71.047C32.593,71.693 32.698,71.996 33.058,72.636C35.198,76.456 42.34,85.243 44.375,87.089C44.523,87.223 44.631,87.313 44.942,87.519C45.241,87.719 46.217,88.352 46.217,88.352C46.255,88.379 46.288,88.415 46.313,88.456L46.666,89.078C46.666,89.078 46.633,89.062 46.574,89.032L46.421,88.956C46.299,88.895 46.137,88.814 45.95,88.721L45.497,88.494C44.802,88.145 43.973,87.725 43.537,87.49C43.358,87.393 43.189,87.28 43.033,87.149C40.65,85.168 33.347,76.614 31.2,73.043C30.664,72.152 30.609,71.863 30.681,71.019C30.816,69.448 31.024,67.473 31.207,66.607C31.318,66.085 31.432,65.779 31.832,65.317C33.176,63.769 34.816,61.724 36.413,59.626L36.975,58.884C39.396,55.666 41.626,52.445 42.459,50.804C42.65,50.431 42.666,50.301 42.67,49.949C42.681,48.926 42.354,46.935 42.269,46.431C42.256,46.353 42.252,46.273 42.259,46.193L42.35,45.03ZM62.28,43.111L62.897,43.38C63.08,43.459 63.246,43.575 63.384,43.718C67.169,47.673 70.197,51.773 70.803,52.854C70.92,53.061 71,53.269 71.028,53.507C71.709,59.274 71.124,65.383 69.735,70.698C69.609,71.177 69.468,71.423 69.008,71.769C67.524,72.886 65.31,74.667 63.108,76.483L62.414,77.056C59.761,79.255 57.241,81.407 56.171,82.397C55.903,82.647 55.669,82.929 55.477,83.241C54.976,84.057 54.21,85.461 53.834,86.158L53.729,86.353C53.654,86.494 53.61,86.576 53.61,86.576C53.111,85.486 52.024,82.828 51.651,81.753C51.529,81.403 51.507,81.219 51.636,80.75C52.245,78.522 55.12,72.045 55.68,70.874L55.681,71.353C55.681,71.423 55.67,71.492 55.648,71.558C55.395,72.324 53.849,77.428 53.535,79.642C53.465,80.135 53.471,80.267 53.535,80.751C53.673,81.784 54.29,83.68 54.29,83.68C54.29,83.68 54.656,82.915 54.997,82.397C55.165,82.144 55.266,82.022 55.539,81.75C56.922,80.382 59.28,78.266 61.737,76.139L62.606,75.388C64.493,73.767 66.377,72.19 67.866,70.984C68.253,70.671 68.397,70.461 68.483,69.866C68.91,66.934 69.034,61.671 68.776,57.842C68.727,57.119 68.493,56.42 68.086,55.819C67.152,54.438 66.036,53.131 64.344,51.453C64.102,51.212 63.938,50.904 63.876,50.569C63.382,47.932 62.28,43.111 62.28,43.111ZM30.27,49.211C30.505,49.135 30.755,49.126 30.995,49.184C32.074,49.443 34.358,50.004 36.085,50.446C36.327,50.508 36.629,50.735 36.758,50.949L37.134,51.575C37.266,51.795 37.275,52.065 37.158,52.292C36.844,52.901 36.396,53.726 35.923,54.577L35.565,55.216C34.906,56.387 34.25,57.516 33.877,58.11C33.632,58.503 33.495,58.676 33.058,58.831C31.36,59.429 29.25,60.144 27.996,60.551C27.74,60.634 27.653,60.79 27.703,61.074C27.793,61.592 28.082,63.352 28.193,63.865C28.234,64.055 28.385,64.206 28.667,64.152C29.408,64.011 31.381,63.528 31.381,63.528C31.381,63.528 30.799,64.066 30.451,64.384C30.387,64.443 30.313,64.487 30.231,64.514C29.693,64.694 28.38,65.063 27.971,65.152C27.652,65.221 27.449,65.096 27.367,64.734C27.367,64.734 26.807,62.349 26.605,61.539C26.573,61.415 26.541,61.308 26.502,61.186C26.351,60.717 25.986,59.794 25.781,59.311C25.757,59.255 25.745,59.195 25.746,59.133C25.752,58.581 25.854,57.348 25.854,57.348C25.854,57.348 27.062,58.482 27.646,58.891C27.778,58.984 27.857,59.003 28.018,58.962C28.821,58.755 30.667,58.144 31.681,57.765C31.912,57.678 32.115,57.532 32.272,57.341C33.321,56.074 34.635,54.103 35.394,52.616C35.499,52.411 35.519,52.177 35.453,51.957L35.29,51.418C35.242,51.26 35.075,51.082 34.922,51.023C33.135,50.343 31.727,49.838 30.072,49.274L30.27,49.211ZM65.6,33.862C65.993,33.718 66.424,33.728 66.81,33.89C69.804,35.149 74.839,38.108 77.638,40.194C77.908,40.395 78.016,40.534 78.087,40.86C78.744,43.851 78.994,48.476 78.58,52.37C78.55,52.649 78.494,52.817 78.348,53.116C76.575,56.745 74.579,60.162 72.478,62.797L72.483,62.754C72.51,62.473 72.661,60.891 72.669,60.035C72.67,59.938 72.715,59.849 72.791,59.79C73.181,59.487 73.717,59.055 74.02,58.793C74.168,58.665 74.25,58.569 74.327,58.445C75.182,57.061 76.712,54.163 77.329,52.42C77.479,51.994 77.539,51.544 77.502,51.093C77.305,48.664 76.924,45.297 76.356,43.1C76.26,42.726 76.012,42.409 75.668,42.233C75.178,41.981 74.218,41.543 72.03,40.665C71.727,40.543 71.444,40.374 71.195,40.165C69.76,38.958 67.518,37.15 66.123,36.109C65.715,35.805 65.194,35.694 64.697,35.807C63.681,36.037 62.387,36.359 61.659,36.557C61.412,36.623 61.314,36.629 61.058,36.6C60.925,36.584 60.754,36.567 60.573,36.551L60.3,36.527C59.982,36.5 59.683,36.477 59.566,36.468L59.514,36.464C61.887,35.348 64.171,34.386 65.6,33.862ZM33.941,53.501C33.199,54.723 32.312,56.021 31.641,56.832C31.554,56.938 31.437,57.02 31.304,57.07C30.571,57.344 29.349,57.758 28.45,58.032L33.941,53.501ZM24.133,51.896L23.695,54.921L22.206,53.171C22.477,52.583 23.27,52.028 24.133,51.896ZM32.154,34.771L31.747,35.272C31.724,35.294 31.702,35.315 31.679,35.338C31.321,35.603 29.814,36.758 29.406,37.082C29.29,37.174 29.245,37.253 29.218,37.398C29.126,37.909 28.973,38.881 28.928,39.419C28.915,39.577 28.848,39.655 28.687,39.72C27.988,40.005 27.159,40.304 26.489,40.573C26.345,40.63 26.305,40.652 26.22,40.717C26.153,40.769 25.263,41.564 25.263,41.564C25.263,41.564 27.199,41.087 27.909,40.926C28.079,40.888 28.151,40.898 28.308,40.972C28.455,41.04 28.699,41.137 28.828,41.184C29.025,41.257 29.13,41.254 29.348,41.206C30.148,41.027 31.494,40.708 32.21,40.521C32.582,40.424 32.785,40.323 33.101,40.102C33.444,39.864 34.313,39.212 34.313,39.212C34.313,39.212 34.297,39.327 34.285,39.39C34.276,39.445 34.256,39.476 34.22,39.519C34.043,39.732 33.734,40.078 33.58,40.237C33.228,40.602 33.018,40.732 32.576,40.916C30.541,41.765 27.064,43.083 24.456,43.987C24.285,44.047 24.211,44.096 24.085,44.226C23.947,44.366 23.764,44.569 23.764,44.569C23.764,44.569 25.89,44.724 26.539,44.799C26.75,44.823 26.901,44.892 27.061,45.031C27.595,45.49 29.361,47.31 29.89,47.943C29.89,47.943 24.868,48.778 22.541,49.357C22.253,49.427 22.11,49.61 22.045,49.841C21.852,50.518 21.399,52.695 21.399,52.695C21.399,52.695 21.237,52.643 21.012,52.513C20.857,52.424 20.778,52.35 20.609,52.171C20.058,51.588 19.153,50.474 18.718,49.828C18.591,49.637 18.537,49.395 18.696,49.2C19.168,48.619 20.116,47.558 20.639,47.013C20.694,46.954 20.765,46.851 20.84,46.703C21.016,46.354 21.248,45.468 21.328,45.148L21.354,45.045L21.358,45.031L21.248,45.099C21.119,45.181 20.91,45.313 20.82,45.369C20.685,45.455 20.649,45.492 20.593,45.61C20.508,45.788 20.359,46.068 20.247,46.263C20.21,46.327 20.111,46.426 20.058,46.467C19.391,46.977 18.654,47.525 18.129,47.895C18.093,47.92 18.047,47.909 18.016,47.879C17.949,47.812 17.669,47.493 17.619,47.418C17.577,47.355 17.558,47.296 17.558,47.221C17.557,47.088 17.57,46.854 17.583,46.68C17.599,46.475 17.658,46.377 17.909,46.117C18.189,45.826 18.494,45.521 18.815,45.207C19.602,44.544 21.589,42.931 25.137,40.396C25.204,40.348 25.265,40.292 25.314,40.225C25.687,39.722 26.745,38.348 27.006,38.021C27.043,37.975 27.084,37.932 27.131,37.896C27.549,37.565 27.755,37.422 28.179,37.155C29.168,36.531 31.082,35.395 32.154,34.771ZM53.779,33.647C53.928,33.621 54.08,33.642 54.217,33.707L55.253,34.203C55.355,34.252 55.43,34.345 55.457,34.457C55.597,35.05 55.77,35.836 55.886,36.504C55.932,36.782 55.881,37.065 55.74,37.31C55.311,38.056 54.43,39.398 53.938,40.119C53.828,40.281 53.815,40.476 53.849,40.669C54.072,41.905 55.004,46.222 55.004,46.222L54.417,45.688C54.301,45.58 54.224,45.466 54.174,45.318C53.757,44.096 52.977,41.545 52.618,40.304C52.56,40.099 52.604,39.88 52.739,39.717C53.35,38.975 54.241,37.786 54.761,37.033C54.907,36.822 54.955,36.588 54.869,36.413C54.75,36.167 54.548,35.794 54.355,35.455C54.303,35.362 54.216,35.292 54.113,35.258L53.41,35.032C53.287,34.993 53.156,34.995 53.034,35.039C51.502,35.595 49.441,36.397 48.18,36.92C47.996,36.997 47.92,37.003 47.697,36.969C47.331,36.915 46.268,36.725 45.747,36.627C45.653,36.609 45.606,36.503 45.654,36.42L46.272,35.348C46.356,35.203 46.495,35.1 46.658,35.063C48.647,34.61 51.277,34.088 53.779,33.647ZM31.77,38.572C31.865,38.564 31.955,38.617 31.991,38.704C32.116,38.995 32.082,39.319 31.962,39.597C31.915,39.71 31.77,39.82 31.651,39.846L30.659,40.066C30.599,40.079 30.544,40.031 30.548,39.97L30.641,38.804C30.648,38.725 30.71,38.662 30.789,38.656L31.77,38.572ZM43.063,31.078C43.177,31.077 43.249,31.201 43.192,31.299L40.773,35.471C40.638,35.716 40.413,35.899 40.145,35.98L35.608,37.401C35.081,37.561 34.636,37.647 34.088,37.689C33.081,37.764 30.092,37.858 30.092,37.858L30.158,37.717C30.189,37.65 30.244,37.597 30.311,37.568L31.726,36.967C31.832,36.922 31.924,36.853 31.995,36.764L34.18,34.072C34.296,33.928 34.449,33.79 34.611,33.704C36.055,32.944 38.621,31.803 40.419,31.202C40.588,31.145 40.817,31.109 40.995,31.107L43.063,31.078ZM40.637,26.234C45.644,25.794 52.42,25.674 58.892,26.164C59.26,26.192 59.618,26.279 59.959,26.423C62.079,27.315 65.842,29.269 70.025,31.664C70.209,31.77 70.383,31.894 70.543,32.035C71.651,33.013 74.459,35.889 74.459,35.889L73.583,35.715C73.46,35.691 73.345,35.643 73.242,35.573C71.47,34.382 68.884,32.831 66.716,31.737C66.459,31.608 66.181,31.526 65.894,31.496C64.84,31.383 63.415,31.284 62.482,31.246C62.022,31.227 61.709,31.15 61.259,30.921C60.399,30.485 58.317,29.539 57.279,29.143C56.836,28.973 56.609,28.933 56.174,28.94C54.392,28.966 50.331,29.096 48.258,29.225C48.186,29.229 48.117,29.226 48.047,29.215L47.059,29.06C49.861,28.577 56.79,27.959 59.657,27.808L58.49,27.417C58.265,27.342 58.031,27.302 57.792,27.296C57.17,27.282 55.785,27.254 53.988,27.252L53.374,27.252C50.652,27.257 47.15,27.324 43.921,27.567C43.638,27.588 43.363,27.656 43.104,27.771C41.799,28.345 38.618,30.071 35.427,31.845L34.718,32.24C33.894,32.7 33.077,33.158 32.302,33.594C32.302,33.594 32.7,33.081 32.777,32.982C32.845,32.895 32.866,32.879 32.958,32.819C33.086,32.735 33.524,32.446 33.965,32.153L34.292,31.936C34.557,31.759 34.793,31.6 34.927,31.509C34.992,31.464 35.034,31.432 35.117,31.37C36.078,30.645 37.594,29.367 38.497,28.575C38.702,28.396 38.875,28.188 39.018,27.957C39.31,27.483 39.63,26.97 39.826,26.685C39.994,26.439 40.28,26.266 40.637,26.234ZM19.314,14.716C20.551,14.588 21.242,15.07 21.242,16.323L21.242,17.016C21.242,18.298 20.551,18.816 19.314,18.945C17.603,19.124 15.893,19.318 14.185,19.527L14.185,21.422C13.827,21.466 13.468,21.51 13.11,21.556L13.11,15.433C15.176,15.171 17.243,14.933 19.314,14.716ZM76.719,14.518C79.446,14.783 82.171,15.089 84.891,15.432L84.891,16.42C83.715,16.271 82.537,16.129 81.358,15.995L81.358,21.131C81,21.09 80.642,21.05 80.282,21.011L80.282,15.875C79.096,15.744 77.907,15.621 76.719,15.505L76.719,14.518ZM31.416,13.713L31.416,14.7C29.173,14.838 26.931,15.003 24.691,15.194L24.691,16.702C26.684,16.531 28.677,16.382 30.672,16.254L30.672,17.242C28.677,17.37 26.684,17.519 24.691,17.688L24.691,19.343C26.931,19.151 29.173,18.987 31.416,18.849L31.416,19.835C28.822,19.995 26.23,20.191 23.638,20.422L23.638,14.298C26.23,14.067 28.822,13.873 31.416,13.713ZM66.306,15.39C66.306,14.017 66.987,13.734 68.52,13.838C69.866,13.931 71.211,14.032 72.556,14.144C73.888,14.254 74.767,14.628 74.767,16.029L74.767,18.763C74.767,20.138 74.008,20.386 72.556,20.266C71.211,20.155 69.866,20.054 68.52,19.962C67.053,19.863 66.306,19.579 66.306,18.124L66.306,15.39ZM55.874,13.254C58.471,13.316 61.068,13.414 63.664,13.548L63.664,14.535C61.42,14.42 59.174,14.331 56.928,14.269L56.928,15.776C58.926,15.832 60.923,15.908 62.919,16.005L62.919,16.992C60.923,16.895 58.926,16.818 56.928,16.764L56.928,18.417C59.174,18.479 61.42,18.568 63.664,18.684L63.664,19.67C61.068,19.538 58.471,19.44 55.874,19.377L55.874,13.254ZM42.359,13.249L42.359,17.678C42.359,19.079 41.623,19.386 40.142,19.432C38.853,19.472 37.563,19.52 36.273,19.578C34.899,19.64 34.059,19.378 34.059,17.991L34.059,13.563L35.112,13.509L35.112,18.124C35.112,18.405 35.353,18.634 35.672,18.619C37.362,18.54 39.052,18.476 40.743,18.427C41.064,18.418 41.277,18.172 41.277,17.892L41.277,13.276C41.637,13.266 41.998,13.257 42.359,13.249ZM67.92,14.786C67.6,14.764 67.36,14.989 67.36,15.309L67.36,18.337C67.36,18.618 67.6,18.912 67.92,18.934C69.667,19.05 71.411,19.182 73.156,19.33C73.435,19.354 73.714,19.097 73.714,18.817L73.714,15.788C73.714,15.469 73.435,15.204 73.156,15.18C71.411,15.033 69.667,14.901 67.92,14.786ZM47.016,13.179C48.952,13.165 50.888,13.172 52.824,13.198L52.824,14.184C50.755,14.157 48.685,14.151 46.615,14.168C46.335,14.171 46.055,14.414 46.055,14.695L46.055,17.762C46.055,18.043 46.335,18.321 46.615,18.318C48.472,18.302 50.327,18.305 52.183,18.326L52.183,16.671C51.106,16.659 50.029,16.653 48.952,16.654L48.952,15.666C50.381,15.666 51.809,15.677 53.237,15.698L53.237,19.326C51.231,19.296 49.224,19.288 47.217,19.3C45.748,19.31 45.001,19.057 45.001,17.629L45.001,14.96C45.001,13.627 45.668,13.189 47.016,13.179ZM19.716,15.669L19.633,15.671C17.816,15.858 15.999,16.063 14.185,16.286L14.185,18.54C15.999,18.318 17.816,18.112 19.633,17.926C19.911,17.896 20.191,17.641 20.191,17.374L20.191,16.134C20.191,15.853 19.911,15.642 19.633,15.671L19.716,15.669Z"/>
        </g>
    </g>
</svg>
