<?xml version="1.0" encoding="UTF-8" standalone="no"?>
<!DOCTYPE svg PUBLIC "-//W3C//DTD SVG 1.1//EN" "http://www.w3.org/Graphics/SVG/1.1/DTD/svg11.dtd">
<svg width="100%" height="100%" viewBox="0 0 41 41" version="1.1" xmlns="http://www.w3.org/2000/svg" xmlns:xlink="http://www.w3.org/1999/xlink" xml:space="preserve" xmlns:serif="http://www.serif.com/" style="fill-rule:evenodd;clip-rule:evenodd;stroke-linejoin:round;stroke-miterlimit:2;">
    <g>
        <g>
            <g>
                <path d="M28.9,26.7L28.5,27.9L26.9,27.9C33.1,11.7 21.9,4.3 21.9,4.3C17.9,3.9 15.1,5 15.1,5C19.6,9 21,12.3 21,12.3L20.4,12.5C16,7.3 12.5,6.2 12.5,6.2C9.7,7.7 7.8,10.2 7.8,10.2C13.1,13 15.1,15.5 15.1,15.5L14.7,15.7C11.6,13.3 6.4,12.2 6.4,12.2C4.4,15.7 4.3,18.3 4.3,18.3C4.8,18.4 7.4,19 9.1,19.8C14.4,21.9 14.7,27.2 14.7,27.8L13.4,27.8L10.6,26.6L5.4,26.6C6.7,29.6 8.7,31.5 8.7,31.5L11.1,31.5L13.5,30.3L28.5,30.3L28.9,31.5C32.1,31.2 33.9,29.1 33.9,29.1C33.9,29.1 32.1,26.9 28.9,26.7ZM23.1,26C22,26 21.1,25.1 21.1,24C21.1,22.9 22,22 23.1,22C24.2,22 25.1,22.9 25.1,24C25.1,25.1 24.2,26 23.1,26Z" style="fill:rgb(47,163,95);fill-rule:nonzero;"/>
            </g>
            <g>
                <path d="M20.3,1.8C30.5,1.8 38.8,10.1 38.8,20.3C38.8,30.5 30.5,38.8 20.3,38.8C10.1,38.8 1.8,30.5 1.8,20.3C1.8,10.1 10.1,1.8 20.3,1.8M20.3,0C9.1,0 0,9.1 0,20.3C0,31.5 9.1,40.6 20.3,40.6C31.5,40.6 40.6,31.5 40.6,20.3C40.6,9.1 31.5,0 20.3,0Z" style="fill-rule:nonzero;"/>
            </g>
        </g>
    </g>
</svg>
