<?xml version="1.0" encoding="UTF-8" standalone="no"?>
<!DOCTYPE svg PUBLIC "-//W3C//DTD SVG 1.1//EN" "http://www.w3.org/Graphics/SVG/1.1/DTD/svg11.dtd">
<svg width="100%" height="100%" viewBox="0 0 221 221" version="1.1" xmlns="http://www.w3.org/2000/svg" xmlns:xlink="http://www.w3.org/1999/xlink" xml:space="preserve" xmlns:serif="http://www.serif.com/" style="fill-rule:evenodd;clip-rule:evenodd;stroke-linejoin:round;stroke-miterlimit:2;">
    <g transform="matrix(1,0,0,1,-139.383709,-1.999998)">
        <g transform="matrix(1,0,0,1,-324.64063,-232.83132)">
            <g id="g3532" transform="matrix(7.433218,0,0,-7.433218,684.46384,388.0002)">
                <path id="path3534" d="M0,0C0,0 -2.772,-0.801 -8.134,-4.096C-12.941,-7.055 -14.826,-9.043 -14.826,-9.043L-29.656,1.206C-29.656,1.206 -23.417,5.794 -18.204,2.28L-11.211,-2.517L-10.358,-1.956L-29.653,11.562C-29.653,11.562 -26.88,12.364 -21.521,15.657C-16.711,18.617 -14.826,20.606 -14.826,20.606L0.003,10.357C0.003,10.357 -6.235,5.769 -11.449,9.283L-18.442,14.081L-19.295,13.521L0,0Z" style="fill:rgb(226,10,23);fill-rule:nonzero;"/>
            </g>
        </g>
    </g>
</svg>
